<?xml version="1.0" encoding="UTF-8" standalone="no"?>
<svg
   xmlns:dc="http://purl.org/dc/elements/1.1/"
   xmlns:cc="http://creativecommons.org/ns#"
   xmlns:rdf="http://www.w3.org/1999/02/22-rdf-syntax-ns#"
   xmlns:svg="http://www.w3.org/2000/svg"
   xmlns="http://www.w3.org/2000/svg"
   xmlns:sodipodi="http://sodipodi.sourceforge.net/DTD/sodipodi-0.dtd"
   xmlns:inkscape="http://www.inkscape.org/namespaces/inkscape"
   width="24"
   height="24"
   viewBox="0 0 24 24"
   id="svg3390"
   version="1.1"
   inkscape:version="0.91 r13725"
   sodipodi:docname="exit.svg"
   style="fill:none">
  <metadata
     id="metadata3404">
    <rdf:RDF>
      <cc:Work
         rdf:about="">
        <dc:format>image/svg+xml</dc:format>
        <dc:type
           rdf:resource="http://purl.org/dc/dcmitype/StillImage" />
        <dc:title></dc:title>
      </cc:Work>
    </rdf:RDF>
  </metadata>
  <defs
     id="defs3402" />
  <sodipodi:namedview
     pagecolor="#ffffff"
     bordercolor="#666666"
     borderopacity="1"
     objecttolerance="10"
     gridtolerance="10"
     guidetolerance="10"
     inkscape:pageopacity="0"
     inkscape:pageshadow="2"
     inkscape:window-width="1920"
     inkscape:window-height="1056"
     id="namedview3400"
     showgrid="false"
     inkscape:zoom="20.880952"
     inkscape:cx="11.897524"
     inkscape:cy="10.723923"
     inkscape:window-x="0"
     inkscape:window-y="24"
     inkscape:window-maximized="1"
     inkscape:current-layer="exit" />
  <g
     id="exit">
    <path
       id="Fill 1"
       d="m 12,1.9836592e-4 c 6.627,0 12,5.37200163408 12,12.00000163408 0,6.627 -5.373,12 -12,12 -6.627,0 -12,-5.373 -12,-12 C 0,5.3722 5.373,1.9836592e-4 12,1.9836592e-4 Z"
       inkscape:connector-curvature="0"
       style="clip-rule:evenodd;fill:#a5b4bb;fill-rule:evenodd" />
    <path
       id="Fill 4"
       d="m 17.5256,11.9991 -3.1992,3.1992 c -0.4079,0.4079 -0.4079,1.0697 0,1.4776 0.4079,0.4079 1.0687,0.4079 1.4766,0 l 3.91,-3.91 c 0.212,-0.2109 0.3079,-0.4899 0.3009,-0.7668 0.007,-0.2769 -0.0889,-0.5558 -0.3009,-0.7668 l -3.91,-3.90996 c -0.4079,-0.40789 -1.0687,-0.40789 -1.4766,0 -0.4079,0.40789 -0.4079,1.06972 0,1.47761 l 3.1992,3.19915 z"
       inkscape:connector-curvature="0"
       style="clip-rule:evenodd;fill:#ffffff;fill-rule:evenodd" />
    <path
       id="Rectangle 4"
       d="m 11,13 c -0.5523,0 -1,-0.4477 -1,-1 0,-0.5523 0.4477,-1 1,-1 l 6,0 c 0.5523,0 1,0.4477 1,1 0,0.5523 -0.4477,1 -1,1 l -6,0 z"
       inkscape:connector-curvature="0"
       style="clip-rule:evenodd;fill:#ffffff;fill-rule:evenodd" />
    <path
       id="Rectangle 4_2"
       d="m 11,5 c 0.5523,0 1,0.44772 1,1 0,0.55228 -0.4477,1 -1,1 L 7,7 C 6.4477,7 6,6.55228 6,6 6,5.44772 6.4477,5 7,5 l 4,0 z"
       inkscape:connector-curvature="0"
       style="clip-rule:evenodd;fill:#ffffff;fill-rule:evenodd" />
    <path
       id="Rectangle 4_3"
       d="m 11,17 c 0.5523,0 1,0.4477 1,1 0,0.5523 -0.4477,1 -1,1 L 7,19 C 6.4477,19 6,18.5523 6,18 6,17.4477 6.4477,17 7,17 l 4,0 z"
       inkscape:connector-curvature="0"
       style="clip-rule:evenodd;fill:#ffffff;fill-rule:evenodd" />
    <path
       id="Rectangle 5"
       d="M 7,5 C 7.5523,5 8,5.44772 8,6 L 8,18 C 8,18.5523 7.5523,19 7,19 6.4477,19 6,18.5523 6,18 L 6,6 C 6,5.44772 6.4477,5 7,5 Z"
       inkscape:connector-curvature="0"
       style="clip-rule:evenodd;fill:#ffffff;fill-rule:evenodd" />
  </g>
</svg>
