<svg width="108" height="74" viewBox="0 0 108 74" fill="none" xmlns="http://www.w3.org/2000/svg">
<path fill-rule="evenodd" clip-rule="evenodd" d="M40.6061 13.2397C23.9962 13.2397 10.4824 26.8686 10.4824 43.6199C10.4824 60.3711 23.9962 74 40.6061 74C57.216 74 70.7298 60.3711 70.7298 43.6199C70.7298 26.8686 57.216 13.2397 40.6061 13.2397Z" fill="#885D5D"/>
<path fill-rule="evenodd" clip-rule="evenodd" d="M40.6038 71.8118C25.1652 71.8118 12.6504 59.1904 12.6504 43.6203C12.6504 28.0517 25.1652 15.4289 40.6038 15.4289C56.0424 15.4289 68.5573 28.0517 68.5573 43.6203C68.5573 59.1904 56.0424 71.8118 40.6038 71.8118Z" fill="#AD7F68"/>
<path d="M68.3163 22.1633L68.0204 22.6915C66.6898 24.5774 64.0684 26.6876 60.3405 29.0602C56.6312 31.3384 51.5211 33.4252 45.0475 35.1318L44.8987 35.8869C43.0491 39.4336 42.8242 41.5482 44.3162 42.2495C45.7897 43.0453 48.8515 42.1067 53.5938 39.4527C58.3362 36.7987 62.2864 33.7845 65.4446 30.4101C68.6028 27.0357 70.3028 24.7351 70.5632 23.4137L70.6198 22.6396C70.5285 22.1295 70.1971 21.8646 69.7178 21.8637C69.0914 21.636 68.6671 21.8429 68.3163 22.1633Z" fill="#D93D4B"/>
<path d="M69.496 26.7229L67.673 26.3452C67.2717 25.9749 66.9163 25.4816 66.5818 24.8822C65.9129 23.6834 65.7495 22.5451 66.0502 21.4588L68.2818 22.7163L68.5986 21.8764C68.9191 21.2359 69.3595 20.7529 69.9489 20.3891L70.3865 21.2307C70.6586 21.9277 70.7235 22.5817 70.5978 23.2183L73.0782 22.4511C73.0398 22.9732 72.881 23.5588 72.5647 24.178C71.9362 25.3952 70.9229 26.2676 69.496 26.7229Z" fill="#D93D4B"/>
<path d="M66.642 15.4786C66.642 15.4786 66.7201 15.5586 66.642 15.4786C69.1427 16.2791 70.9401 18.1203 72.3467 20.842C72.1123 21.5624 71.8778 22.2828 71.6434 22.8432C71.4871 23.1634 71.3308 23.4836 71.1745 23.6437C70.0804 20.4417 68.2831 18.4404 65.9386 17.6399C65.9386 17.6399 65.9386 17.6399 65.8605 17.5599C64.8445 17.1596 63.9068 17.1596 63.0471 17.3997C62.3438 17.6399 61.7186 17.9601 61.1716 18.3603C60.4682 18.9206 59.7649 19.6411 59.1397 20.2815C58.4363 21.162 57.8111 22.1226 57.3422 23.0832C56.7952 24.2839 56.2481 25.4846 55.8574 26.6854C55.3885 28.2864 54.8414 30.2876 54.4507 32.609C54.0599 32.8491 53.591 33.0092 53.2003 33.2494C52.7314 33.5696 52.3406 33.8097 51.8717 34.1299C52.4188 30.8479 53.044 28.1262 53.6692 26.045L53.7474 25.9649C54.1382 24.6041 54.7633 23.3233 55.3104 22.1226L55.3885 22.0425C56.0137 20.9218 56.7171 19.8812 57.4986 18.9206C58.2019 18.0401 58.9834 17.2396 59.9212 16.5992L60.0775 16.5992C60.7808 16.0389 61.6405 15.6386 62.5001 15.3985C63.8286 14.8382 65.2353 14.9983 66.642 15.4786Z" fill="#54B8AC"/>
<path d="M51.8016 26.571C52.1038 26.2615 52.5268 25.952 52.8894 25.7044C53.1915 25.5187 53.5541 25.2711 53.9167 25.0235C54.2188 24.8378 54.521 24.6521 54.8836 24.5283C55.8505 23.9093 56.9382 23.4141 58.0864 22.9808C59.1137 22.5476 60.0202 22.1143 60.8662 21.8667C63.1625 20.8763 64.7942 20.1954 65.6402 19.7002C66.4862 19.3288 67.2114 18.586 67.7553 17.6575C67.8761 17.41 67.9365 17.2242 68.1178 17.0385C68.2991 16.6052 68.5409 16.1101 68.6617 15.4911C68.7222 15.3054 68.7826 15.1197 68.843 14.934C69.5078 14.2531 70.1121 14.2531 70.7768 14.934L78.7535 23.1049C79.4182 23.7858 79.4182 24.4048 78.7534 25.0857C75.6111 23.8476 73.4356 24.3428 72.1061 26.4474C71.6831 27.3759 70.9579 28.9853 70.0515 31.3994C69.7493 32.2041 69.3263 33.1326 68.9033 34.1849C67.8155 36.7847 66.6673 38.9512 65.3378 40.5605C63.8875 42.4175 61.8933 43.8412 59.5969 44.8316C57.4214 45.6982 55.1251 46.6885 52.6474 45.6362C49.2634 44.1506 46.8462 38.9509 46.8462 38.9509C46.5441 36.9082 46.7858 34.8036 47.6923 32.5133C48.5384 30.0373 49.9283 28.1185 51.8016 26.571Z" fill="#54B8AC"/>
<path d="M20.3793 17.9213L23.261 18.8482L25.5528 41.5253L22.4391 39.438C22.0126 39.1524 21.7572 38.7578 21.6303 38.2542C21.5248 37.7506 21.6115 37.2694 21.869 36.8324L23.1989 34.7352L15.8191 30.0542C15.4565 29.8344 15.2223 29.5055 15.1166 29.0676C15.0109 28.6515 15.0547 28.2359 15.2479 27.8644L20.3793 17.9213Z" fill="#3A2058"/>
<path d="M22.0759 23.3936C21.8883 22.0588 22.1054 20.988 22.7701 20.1812C22.9844 19.9195 23.22 19.7235 23.4982 19.5277L23.8404 19.3539C25.9138 18.6396 28.2645 18.0138 30.9351 17.4984C36.2549 16.4677 40.3755 16.4605 43.3398 17.4771C44.4914 17.8748 45.1509 18.577 45.361 19.5619C45.424 19.8683 45.465 20.3934 45.5052 21.1152C45.5452 21.9027 45.5858 22.537 45.6697 22.9747C45.7533 23.4999 46.1957 25.2511 47.0183 28.2283C48.0305 31.928 48.8101 34.9706 49.3786 37.3128C51.4625 46.09 52.1456 52.4129 51.4704 56.3252C50.9695 59.2102 50.0863 61.5034 48.8424 63.1611C47.7915 64.5351 46.1857 65.8635 43.9824 67.1022C41.9725 67.9698 39.686 68.5521 37.1444 68.8274C33.129 69.2723 30.0995 68.5835 28.0347 66.761C26.5233 65.4434 25.5268 63.3841 25.0238 60.6267C24.8773 59.7513 24.7735 58.8762 24.734 57.9575L24.7163 56.864C24.7607 56.3611 24.7841 55.7707 24.7863 55.1146C24.8315 48.0945 24.7403 43.5234 24.5554 41.4014C24.4124 39.4982 23.5789 33.481 22.0759 23.3936Z" fill="#F55361"/>
<path d="M46.1022 33.8892C46.8283 33.848 47.4044 33.9376 47.7881 34.1139C48.6406 34.5762 49.3397 36.1752 49.864 38.9546C49.9265 39.414 50.0107 39.7643 50.0953 40.0051C50.2012 40.2679 50.2642 40.5744 50.3271 40.9245C51.0369 45.6509 51.4121 48.3423 51.4952 48.9987C51.8059 51.821 51.8615 54.3144 51.6407 56.4568L51.3803 57.6806C51.0994 58.6637 50.6906 59.6027 50.1966 60.4539C48.5433 63.2036 46.0186 64.7473 42.6013 65.1288C39.1839 65.5103 36.5376 65.1728 34.6409 64.1381C33.6818 63.6317 33.0859 63.0828 32.8317 62.4914C35.0859 58.8472 36.0626 54.1486 35.7621 48.352C35.6615 46.5365 35.4541 44.7424 35.0973 42.9259L34.6136 40.7591C34.6362 40.3874 34.5958 39.7311 34.5136 38.7904C34.4311 37.9372 34.4332 37.303 34.4988 36.8658C34.7169 35.5107 35.8296 34.7711 37.8584 34.6252C38.9903 34.5418 40.1008 34.4583 41.2114 34.3529C42.4074 34.2259 43.2403 34.1633 43.6888 34.1211C44.8422 33.994 45.6537 33.9313 46.1022 33.8892Z" fill="#F78F9F"/>
<path d="M42.5948 31.3268L43.2754 33.8468C43.7375 35.8724 44.0078 37.7493 44.0863 39.4527C44.2934 44.9577 42.4199 47.8882 38.4933 48.2445C35.5002 48.5301 32.9514 46.6205 30.8194 42.5156C30.1635 41.2297 29.5902 39.7961 29.0996 38.2146L28.5551 36.2381L42.5948 31.3268Z" fill="#F55260"/>
<path d="M42.0468 32.3464L42.5361 34.4956C42.8616 36.2245 42.9953 37.8294 43.0193 39.3104C43.0086 44.0248 41.4379 46.6109 38.2799 47.0193C35.8083 47.356 33.7255 45.7443 32.0863 42.2335C31.5672 41.1209 31.1307 39.9099 30.7495 38.551L30.3416 36.8465L42.0468 32.3464Z" fill="#3A2058"/>
<path d="M35.119 40.7343L33.543 38.8481L44.0511 39.9049L44.0065 40.6269L42.6135 42.3519C42.3991 42.6139 42.121 42.7664 41.8005 42.7874C41.4586 42.8083 41.1812 42.6982 40.9255 42.4568L39.5829 41.1402L37.9559 42.4707C37.6776 42.6888 37.3569 42.7973 36.9939 42.7307C36.6308 42.6859 36.3535 42.5101 36.1407 42.2032L35.119 40.7343Z" fill="white"/>
<path d="M44.7496 14.3203C46.9291 13.9615 48.7307 13.9021 50.1964 14.1421C51.7249 14.4038 53.0429 15.0297 54.1296 15.9982C55.1953 16.9882 56.1552 18.4069 57.0091 20.2975C58.3627 23.3695 59.4204 27.4278 60.1614 32.4293C60.3878 33.9533 60.1747 35.3689 59.5638 36.6546C58.953 37.9189 58.134 38.732 57.0648 39.0509C54.4023 39.8805 51.9081 40.4744 49.6239 40.8329C45.7888 41.4661 42.6045 41.6076 40.1127 41.2574C36.0504 40.6884 32.7454 38.877 30.1977 35.866L23.1166 20.2045C29.6989 18.3344 34.4366 16.9527 37.3505 16.1238C40.3902 15.231 42.8635 14.637 44.7496 14.3203Z" fill="#F55361"/>
<path d="M19.124 13.7309C19.8599 12.4619 20.9267 11.6482 22.3246 11.2899C23.7224 10.9315 25.0296 11.1405 26.2685 11.8943C27.5074 12.6481 28.3017 13.7409 28.6516 15.1727C29.0014 16.6045 28.8195 17.9436 28.0837 19.2127C27.3478 20.4817 26.281 21.2954 24.8831 21.6537C23.4853 22.0121 22.178 21.8258 20.9391 21.072C19.7002 20.3182 18.9059 19.2254 18.556 17.7936C18.184 16.3617 18.3882 15 19.124 13.7309Z" fill="white"/>
<path d="M37.2177 8.65109C38.4566 9.40485 39.251 10.4976 39.6008 11.9295C39.9507 13.3613 39.7688 14.7004 39.0329 15.9695C38.2971 17.2385 37.2302 18.0522 35.8323 18.4332C34.4344 18.8143 33.1272 18.6053 31.8884 17.8288C30.6495 17.075 29.8551 15.9822 29.5053 14.5504C29.1554 13.1186 29.3373 11.7794 30.0732 10.5104C30.809 9.24141 31.8759 8.42772 33.2737 8.06937C34.6495 7.68823 35.9789 7.89733 37.2177 8.65109Z" fill="white"/>
<path d="M31.6086 0.661392C32.1416 0.473088 32.7118 0.475028 33.3191 0.667213C33.8651 0.842272 34.3628 1.11626 34.8123 1.48916C34.9887 1.65088 35.1391 1.82781 35.2375 2.03518C35.3508 2.26919 35.3619 2.47465 35.2969 2.63635C35.2263 2.81898 35.0945 2.98447 34.8456 3.0948C34.6171 3.21083 34.411 3.24316 34.2067 3.18607C34.0841 3.15182 33.696 3.04336 33.0422 2.86068C32.4293 2.68942 32.0096 2.61711 31.8035 2.64943C31.5304 2.68556 31.2537 2.6532 30.9993 2.53714C30.704 2.40965 30.5387 2.20609 30.4979 1.94735C30.457 1.68862 30.5239 1.43751 30.7338 1.22635C30.9288 0.988565 31.2148 0.821169 31.6086 0.661392Z" fill="#3A2058"/>
<path d="M18.3137 4.55726C18.7799 4.07292 19.2741 3.78271 19.8221 3.70205C20.2216 3.63908 20.5705 3.63458 20.8537 3.71502C21.1423 3.81642 21.319 3.99286 21.4041 4.23881C21.4892 4.48475 21.4204 4.72743 21.2288 5.00323C21.0522 5.25256 20.8541 5.41806 20.5936 5.51077C20.3944 5.58693 20.0692 5.85394 19.5977 6.31732C19.5773 6.32284 19.3038 6.62072 18.772 7.19001C18.6353 7.33895 18.4361 7.4151 18.1744 7.41848C17.9182 7.44281 17.7276 7.38219 17.5617 7.24767C17.4217 7.12858 17.3527 6.9455 17.329 6.68299C17.316 6.4624 17.3439 6.23075 17.4182 6.00903C17.6269 5.45968 17.9391 4.97208 18.3137 4.55726Z" fill="#3A2058"/>
<path d="M21.6063 8.75528C22.6453 8.47777 23.6832 8.43889 24.7204 8.59527C25.7152 8.75147 26.6668 9.10274 27.533 9.64888C28.0035 8.54449 28.6852 7.59287 29.578 6.81574C30.4921 5.99531 31.5534 5.43586 32.7407 5.1373C33.9281 4.81704 35.1354 4.80061 36.3415 5.08789L39.3157 2.90965L39.702 6.79473L39.8497 6.92554L42.0766 6.19761L41.5349 9.14577C41.8079 9.71103 42.0385 10.2761 42.1842 10.8842C42.7049 13.0126 42.4212 15.029 41.3332 16.9117C40.224 18.7943 38.6305 20.0023 36.5527 20.5356C35.5349 20.8132 34.497 20.8521 33.4386 20.6956C32.4438 20.5394 31.4922 20.1882 30.6261 19.642C30.1556 20.7464 29.4739 21.698 28.5811 22.4752C27.667 23.2739 26.6057 23.8334 25.4183 24.1536C23.3405 24.6869 21.372 24.3963 19.534 23.2819C17.696 22.1674 16.5167 20.5352 15.996 18.4068L15.8713 17.8205L13.6962 16.2924L15.8612 15.152L15.8615 15.0869L13.3753 11.952L17.6354 11.2329C18.6995 10.0009 20.0162 9.16056 21.6063 8.75528ZM22.2727 11.4917C20.937 11.833 19.9171 12.6096 19.2131 13.8432C18.5091 15.055 18.3131 16.3559 18.6675 17.7242C19.0007 19.0924 19.78 20.1372 20.9631 20.8583C22.1461 21.5794 23.395 21.7584 24.7519 21.4171C26.1088 21.0759 27.1075 20.2993 27.8115 19.0874C28.5154 17.8756 28.7115 16.5747 28.3571 15.2064C28.0027 13.8381 27.2657 12.7935 26.0615 12.0723C24.8784 11.3512 23.6085 11.1504 22.2727 11.4917ZM39.4703 11.5883C39.1371 10.2201 38.379 9.17542 37.1959 8.45433C36.0128 7.73325 34.7428 7.53246 33.407 7.89546C32.0713 8.23677 31.0513 9.03504 30.3474 10.2469C29.6434 11.4587 29.4475 12.7379 29.8019 14.1062C30.1351 15.4745 30.8932 16.5191 32.0975 17.2403C33.2805 17.9614 34.5505 18.1622 35.8863 17.7992C37.2221 17.4579 38.242 16.6596 38.946 15.4477C39.6287 14.2358 39.8035 12.9565 39.4703 11.5883Z" fill="#6E5690"/>
<path d="M38.3195 12.8217C38.0681 13.8517 37.4816 14.5384 36.6436 14.9676C35.8056 15.4826 34.8839 15.6543 33.9621 15.3968C33.3755 15.2251 32.9565 14.9676 32.6214 14.6243C32.4538 14.4526 32.37 14.2809 32.37 14.0234C32.37 13.7659 32.4538 13.5942 32.5376 13.3367C32.7052 13.1651 32.8727 13.0792 33.1241 13.0792C33.3755 13.0792 33.5431 13.1651 33.7945 13.2509C33.9621 13.4226 34.2135 13.5942 34.5487 13.6801V13.5942C34.9677 13.7659 35.4704 13.6801 35.8894 13.4226V13.3367C36.3084 13.0792 36.6436 12.7359 36.7274 12.2209V12.3067C36.8112 11.9634 36.8112 11.7059 36.7274 11.3625C36.6436 11.105 36.7274 10.9334 36.8112 10.6759C36.9788 10.5042 37.1464 10.3325 37.314 10.3325C37.5654 10.3325 37.7329 10.3325 37.9843 10.5042C38.1519 10.6759 38.3195 10.8475 38.4033 11.0192C38.4033 11.7059 38.4033 12.3067 38.3195 12.8217Z" fill="#4A3569"/>
<path d="M22.5233 19.2527C22.4378 19.2527 22.4378 19.2527 22.5233 19.2527C21.925 19.0776 21.4976 18.8149 21.1557 18.4647C20.9847 18.2896 20.8993 18.1144 20.8138 17.8518C20.8138 17.5891 20.8993 17.414 20.9847 17.1513C21.1557 16.9762 21.3267 16.8887 21.5831 16.8887C21.8395 16.8887 22.0105 16.9762 22.2669 17.0638C22.4378 17.2389 22.6943 17.414 23.0362 17.5015L22.9507 17.414C23.3781 17.5891 23.891 17.5016 24.3183 17.2389V17.1513C24.7457 16.8887 25.0876 16.5384 25.2586 16.0131V16.1007C25.3441 15.7504 25.3441 15.4878 25.2586 15.1375C25.1731 14.8749 25.2586 14.6998 25.3441 14.4371C25.515 14.262 25.686 14.0869 25.9424 14.0869C26.1988 14.0869 26.3698 14.0869 26.6262 14.262C26.7972 14.4371 26.9681 14.6122 26.9681 14.7873C27.0536 15.3127 27.0536 15.838 26.9681 16.4509C26.7117 17.414 26.1134 18.1144 25.2586 18.6398H25.3441C24.3183 19.4278 23.3781 19.5153 22.5233 19.2527Z" fill="#4A3569"/>
<path d="M52.3986 12.9131C52.7441 12.3113 53.1465 11.8562 53.6478 11.5434C54.1492 11.2307 54.6483 11.1144 55.1454 11.1943C55.8151 11.3001 56.2826 11.7317 56.5899 12.4847C56.8973 13.2377 56.935 14.0618 56.6863 15.0024C56.4376 15.943 56.0014 16.7066 55.3758 17.2717L47.1539 14.7565C47.0109 13.7253 47.1543 12.7955 47.5631 11.9693C47.9929 11.1409 48.5827 10.6449 49.3347 10.5026C49.9813 10.3712 50.5941 10.5482 51.169 10.9906C51.7481 11.4762 52.1502 12.1105 52.3986 12.9131Z" fill="#F55361"/>
<path d="M53.6768 14.1598C53.7885 13.7781 53.995 13.4955 54.2709 13.2713C54.5258 13.0492 54.7954 12.9781 55.0355 13.0407C55.2777 13.1249 55.4461 13.3256 55.5407 13.6427C55.6354 13.9599 55.6058 14.3115 55.4941 14.6933C55.3823 15.0751 55.178 15.3792 54.902 15.6034C54.6471 15.8256 54.3775 15.8966 54.1143 15.8146C53.8511 15.7325 53.6826 15.5318 53.588 15.2147C53.5354 14.8933 53.544 14.5438 53.6768 14.1598Z" fill="#3A2058"/>
<path d="M48.7165 13.7582C48.6913 13.2814 48.7799 12.8802 48.9822 12.5546C49.1845 12.2289 49.4246 12.0736 49.7237 12.0867C50.0017 12.1019 50.2522 12.2724 50.4543 12.6004C50.6564 12.9283 50.7805 13.3296 50.7824 13.7869C50.7844 14.2443 50.6958 14.6455 50.5146 14.969C50.3334 15.2925 50.0932 15.4478 49.7963 15.4563C49.5204 15.4627 49.2698 15.2922 49.0446 14.9448C48.8425 14.6168 48.7184 14.2155 48.7165 13.7582Z" fill="#3A2058"/>
<mask id="mask0" mask-type="alpha" maskUnits="userSpaceOnUse" x="12" y="15" width="57" height="57">
<path fill-rule="evenodd" clip-rule="evenodd" d="M40.6019 71.8105C25.1633 71.8105 12.6484 59.1892 12.6484 43.6191C12.6484 28.0505 25.1633 15.4277 40.6019 15.4277C56.0405 15.4277 68.5553 28.0505 68.5553 43.6191C68.5553 59.1892 56.0405 71.8105 40.6019 71.8105Z" fill="#DADADA"/>
</mask>
<g mask="url(#mask0)">
<path d="M50.4267 41.1646C51.1052 46.1371 52.0381 50.7667 53.1406 54.9675C55.8544 58.997 57.9746 62.6835 59.5859 66.027C58.5682 69.1991 56.7025 70.3136 53.819 69.542C52.2925 72.1997 50.0875 73.0571 47.2889 72.0283C47.2041 70.3283 47.0344 70.2426 46.9496 70.2426C44.8295 72.4716 42.7093 74.0859 40.5891 72.0283C39.9106 72.7999 39.1474 71.6143 38.2993 71.7858C37.4512 71.9572 36.6879 73.4 36.0943 72.7999C35.4158 72.2855 35.0766 71.8568 35.0766 71.5996C32.4476 73.2285 30.073 72.7141 27.868 69.9707C25.1541 70.3136 23.2884 70.4704 22.0163 67.2983C18.7088 66.6982 16.9278 63.1121 16.7582 59.7686C17.5215 58.2254 20.0657 55.5677 24.2213 51.7097C24.0516 50.2523 24.7199 49.2285 24.7199 48.0282C38.3739 49.3999 46.4408 46.9087 50.4267 41.1646Z" fill="#F9F6EF"/>
</g>
<path d="M58.8639 45.6271L58.6159 46.3307C58.0312 47.4765 55.9133 49.0794 52.0923 51.2292C48.2701 53.2915 43.8423 54.7484 38.8953 55.6865C36.5073 56.1544 34.629 56.3533 33.3458 56.2819C31.1214 56.1348 29.9111 55.0117 29.7128 52.7375C29.5999 50.4622 30.6119 49.311 32.8321 49.1079C38.9061 49.4691 43.9459 49.1428 47.8672 48.2177C51.8739 47.2915 54.7674 46.2041 56.4601 44.7817L56.8832 44.4261C57.223 44.2467 57.6504 44.2413 58.1664 44.4975C58.6824 44.7537 58.8575 45.1017 58.8639 45.6271Z" fill="#F55361"/>
<path d="M57.5437 46.6016L56.0076 45.5223C55.7792 45.02 55.6401 44.4228 55.5609 43.7361C55.4024 42.3627 55.6868 41.2479 56.3793 40.3671L57.9557 42.4212L58.5688 41.774C59.1091 41.3122 59.6997 41.0435 60.382 40.9445L60.4637 41.8958C60.4481 42.6474 60.258 43.2763 59.8988 43.8127L62.4785 44.1002C62.2436 44.5661 61.8734 45.0423 61.3451 45.4862C60.306 46.3863 59.0331 46.754 57.5437 46.6016Z" fill="#F55361"/>
<path d="M10.6623 36.6244C10.4094 35.0846 10.283 33.4164 10.283 31.62C10.283 29.5669 10.5359 28.0271 11.2947 27.2572H11.4211C12.6857 26.4873 13.9504 26.6156 15.3415 27.5138C16.6061 28.412 17.8707 29.6952 18.8824 31.235C19.7677 32.5182 20.5264 33.8014 21.1588 35.2129C22.1705 37.266 22.8028 39.4474 23.4351 41.5005C23.9409 43.4253 24.3203 45.0934 24.4468 46.3766L24.5733 46.5049C24.6997 47.5314 24.8262 48.3013 24.8262 48.9429C24.8262 49.1996 24.9526 49.3279 24.9526 49.5845C24.9526 49.7128 24.9526 49.8412 24.8262 49.8412C24.8262 49.9695 24.8262 49.9695 24.9526 49.8412C24.9526 49.8412 24.9526 49.7128 25.0791 49.7128L24.9526 49.8412L24.5733 50.3544C24.5733 50.3544 24.5733 50.4827 24.4468 50.4827C23.688 51.2527 22.8028 52.1509 21.6646 52.9208C20.4 53.819 18.8824 54.4606 17.2384 55.2305H17.1119C15.215 55.7438 13.9504 55.3588 13.4445 53.6907C12.9387 52.1509 13.4445 50.4827 14.8356 48.8146C15.0885 48.558 15.3415 48.3013 15.5944 48.0447C13.9504 45.35 12.9387 43.2969 12.4328 42.0138C11.674 40.089 11.0417 38.2925 10.6623 36.6244ZM16.1002 48.558C16.2267 48.6863 16.2267 48.6863 16.2267 48.8146C16.1002 48.6863 16.1002 48.558 16.1002 48.558Z" fill="#54B8AC"/>
<path d="M17.0258 42.9377C17.1464 42.8558 17.338 42.9286 17.4337 42.965C19.3207 44.3207 21.0834 46.2675 22.7465 48.6873C22.6507 48.6509 22.6507 48.6509 22.5549 48.6145C20.7426 46.9041 18.8805 45.4303 16.8977 44.0382C16.8268 43.8836 16.7559 43.729 16.7559 43.729C16.685 43.5743 16.7347 43.3378 16.7596 43.2196C16.7845 43.1014 16.9051 43.0195 17.0258 42.9377ZM18.4322 37.7261C19.4995 39.5363 20.5171 41.5831 21.531 44.1392C22.5449 46.6953 23.0164 47.896 22.9915 48.0142C22.9666 48.1324 22.846 48.2143 22.846 48.2143C20.1478 42.8473 17.8962 38.7993 16.1161 35.952C16.0452 35.7973 15.9743 35.6427 15.9992 35.5244C16.0489 35.288 16.0738 35.1697 16.1944 35.0879C16.3151 35.006 16.4357 34.9242 16.5315 34.9606C16.723 35.0334 17.3649 35.9158 18.4322 37.7261Z" fill="#FFF3CB"/>
<path d="M24.505 45.9429C24.505 46.0712 24.505 46.0712 24.505 45.9429C24.6314 47.0975 24.7579 47.8672 24.8843 48.5087C24.8843 48.7653 24.8843 48.8935 24.8843 49.1501C24.8843 49.2784 24.8843 49.4067 24.8843 49.4067C24.8843 49.535 24.8843 49.535 24.8843 49.4067C24.8843 49.4067 24.8843 49.2784 25.0107 49.2784L24.8843 49.4067L24.505 49.9199C24.505 49.9199 24.505 49.9199 24.3786 50.0482V49.9199C23.6199 50.8179 22.7349 51.5877 21.597 52.4857C20.3326 53.3837 18.8154 54.0252 17.1717 54.7949C15.2752 55.3081 14.0108 54.7949 13.3786 53.2554C12.8729 51.716 13.3786 50.0482 14.7694 48.3804C15.0223 48.1238 15.2752 47.8672 15.6545 47.6106C14.0108 44.9165 12.9993 42.8639 12.3672 41.581C11.6085 39.5283 10.9764 37.7323 10.7235 36.1928C10.4706 34.6533 10.3442 32.9855 10.3442 31.1894C10.3442 29.1368 10.7235 27.5973 11.4821 26.8276L11.6085 26.6993C12.8729 25.9295 14.1373 26.0578 15.5281 26.9559V26.8276C16.7924 27.7256 18.0568 29.0085 19.0683 30.548C19.9533 31.8309 20.7119 33.1138 21.3441 34.525C22.3556 36.5777 23.1142 38.7586 23.6199 40.8112C23.9993 42.9922 24.3786 44.66 24.505 45.9429ZM23.8728 46.5843C23.8728 46.3277 23.7464 46.1994 23.7464 45.9429C22.9878 42.8639 22.1027 39.7849 20.9648 36.9625C20.3326 35.423 19.4476 34.0118 18.5625 32.6006C17.6775 31.1894 16.5395 30.1631 15.4016 29.2651C14.3901 28.6236 13.5051 28.4953 12.62 29.0085C12.1143 29.65 11.8614 30.8046 11.8614 32.3441C11.9879 34.0118 12.1143 35.5513 12.2407 36.9625V36.8342C12.4936 38.2454 12.9993 39.9132 13.758 41.8376C13.8844 42.2224 14.0108 42.6073 14.1373 42.9922C14.643 44.2751 15.2752 45.3014 16.0338 46.3277C16.0338 46.3277 16.1602 46.5843 16.5395 47.2258V48.1238C16.4131 48.2521 16.4131 48.2521 16.2867 48.3804C16.1602 48.2521 16.1602 48.1238 16.1602 48.1238V48.2521C16.1602 48.3804 16.2867 48.3804 16.2867 48.5087C16.0338 48.7653 15.7809 49.1501 15.5281 49.6633C15.0223 50.5613 14.7694 51.4594 15.0223 52.4857C15.1487 52.9989 15.4016 53.3837 15.9074 53.512C16.2867 53.6403 16.666 53.6403 17.1717 53.6403V53.512C18.5625 53.2554 19.9533 52.7423 21.2177 51.8442C22.3556 51.0745 23.4935 50.1765 24.3786 49.4067C24.3786 49.2784 24.3786 49.0219 24.2521 48.7653C24.2521 48.637 24.2521 48.3804 24.1257 48.2521C23.9993 47.2258 23.8728 46.7126 23.8728 46.5843Z" fill="#FFF3CB"/>
<path d="M24.8276 49.9616C24.8276 49.8333 24.8276 49.8333 24.8276 49.9616V49.9616ZM5.73175 33.6652C7.62869 33.6652 9.39918 34.3068 11.2961 35.205C12.6872 35.8466 14.0783 36.7449 15.3429 37.7714C17.2399 39.1829 18.8839 40.851 20.275 42.5192C21.6661 44.1873 22.6778 45.5988 23.3101 46.7537C24.0689 47.9085 24.5747 48.9351 24.8276 49.5767C24.8276 49.705 24.9541 49.8333 24.9541 49.8333V49.9616L24.7012 50.7315C24.1953 52.143 23.1836 53.8112 21.919 55.6076C20.4014 57.5324 18.7574 59.3288 16.734 60.997V61.1253H16.6076C14.2048 62.9217 12.1814 63.1784 10.7903 61.7669C9.39917 60.3554 9.27272 58.174 10.5373 55.4793C11.0432 54.3244 11.802 53.2979 12.8137 52.528C10.9167 51.6298 9.27271 50.4749 7.75516 49.1917C6.11114 47.6519 4.84653 46.2404 3.83482 44.9572C2.94958 43.5457 2.19079 42.0059 1.43202 40.3378C0.673241 38.413 0.546782 36.7449 1.17909 35.7183L1.30556 35.59C2.19081 33.9219 3.70835 33.2803 5.73175 33.6652Z" fill="#54B8AC"/>
<path d="M12.8412 41.62C14.7366 42.7829 16.6624 44.1965 18.7723 46.0958C20.8822 47.9951 21.8678 48.8898 21.8829 49.0151C21.8981 49.1404 21.7897 49.281 21.7897 49.281C16.7056 45.5901 12.6223 42.9191 9.52458 41.1428C9.38594 41.0329 9.24731 40.923 9.23215 40.7977C9.20184 40.5471 9.18669 40.4218 9.29502 40.2811C9.40335 40.1404 9.51168 39.9998 9.63516 39.9844C10.0208 40.0636 10.9609 40.5824 12.8412 41.62ZM13.2762 47.2889C13.3846 47.1483 13.6315 47.1175 13.755 47.1022C16.4239 47.4057 19.1686 48.3357 21.9739 49.7668C21.8504 49.7822 21.8504 49.7822 21.7269 49.7976C19.0125 49.1182 16.3285 48.6894 13.5361 48.4012C13.3975 48.2913 13.2588 48.1814 13.2588 48.1814C13.1202 48.0715 13.0899 47.8209 13.0747 47.6956C13.0596 47.5703 13.1679 47.4296 13.2762 47.2889Z" fill="#FFF3CB"/>
<path d="M19.9398 42.2643C21.2785 44.0053 22.3247 45.4012 23.0937 46.5772C23.7392 47.7687 24.3544 48.7095 24.5688 49.4459C24.5839 49.5711 24.5839 49.5711 24.5991 49.6964C24.6143 49.8217 24.6142 49.8217 24.7226 49.6811C24.7226 49.6811 24.7226 49.6811 24.7074 49.5558L24.7226 49.6811L24.4431 50.479C23.8689 51.9495 22.8159 53.6067 21.4077 55.4355C19.9995 57.2642 18.3291 58.9984 16.4118 60.7633L16.2883 60.7787C16.2883 60.7787 16.2883 60.7787 16.3035 60.904C13.8922 62.7304 11.9165 62.9765 10.4847 61.5015C9.05284 60.0264 8.93383 58.0064 10.3443 55.1599C10.8405 54.0807 11.5987 53.096 12.4957 52.2212C10.6305 51.3089 8.85856 50.1305 7.45703 48.9061C5.77823 47.4618 4.46988 45.9714 3.56227 44.6855C2.65467 43.3995 1.84024 41.8476 1.11898 40.0297C0.259088 38.1019 0.200696 36.583 0.820341 35.4884C0.820341 35.4884 0.820342 35.4884 0.805186 35.3631C1.88845 33.9564 3.44823 33.3806 5.48456 33.6357L5.36109 33.6511C7.25877 33.7963 9.07844 34.3328 10.8201 35.2605C12.2845 35.9684 13.5322 36.9576 14.8883 37.8062C17.0459 39.0637 18.6163 40.6486 19.9398 42.2643ZM15.408 40.0307C14.0217 38.9316 12.6353 37.8324 11.0323 37.0146C9.42926 36.1968 7.87171 35.7549 6.22098 35.5789C4.81722 35.3722 3.73619 35.7612 2.85443 36.7613C2.45144 37.5745 2.60299 38.8275 3.1553 40.2848C3.84625 41.8521 4.52205 43.2941 5.42966 44.5801L5.4145 44.4548C6.30694 45.6155 7.47666 46.996 9.01683 48.3303C9.2941 48.5502 9.58652 48.8953 9.86379 49.1151C10.9729 49.9944 12.0668 50.7484 13.2691 51.3618C13.2691 51.3618 13.5312 51.4563 13.932 51.6608C13.607 52.0828 13.5138 52.3488 13.3752 52.2389C12.7252 53.0829 12.2291 54.1621 11.9019 55.6019L11.917 55.7271C11.5746 57.0416 11.7262 58.2945 12.6035 59.3299C13.0346 59.7849 13.5588 59.974 14.0527 59.9125C14.5466 59.851 15.1489 59.6488 15.8443 59.1806C17.5905 58.0729 19.1525 56.4794 20.5607 54.6507C21.8606 52.9626 22.9136 51.3053 23.8582 49.7887C23.5203 49.0677 23.0589 48.3621 22.4589 47.5465C20.2278 44.6449 17.9187 42.1345 15.408 40.0307Z" fill="#FFF3CB"/>
<path d="M72.9421 27.8553C72.8623 28.4954 72.6474 29.0357 72.2898 29.4947C71.9767 29.8419 71.6018 30.1415 71.1692 30.4171C70.3039 30.9682 69.5935 31.0626 69.0115 30.7327L70.2794 28.7638L69.8581 28.4358C69.5556 28.114 69.3741 27.6907 69.2981 27.1375L69.8981 26.7798C70.3735 26.5655 70.7749 26.5376 71.1211 26.6822L71.2523 24.3908C71.5515 24.4505 71.8598 24.6227 72.1509 24.9397C72.7519 25.56 73.0093 26.5365 72.9421 27.8553Z" fill="#D93D4B"/>
<path d="M103.669 61.5832C103.364 61.5832 103.119 61.6826 102.875 61.8813C102.63 62.0303 102.569 62.2787 102.569 62.5767C102.569 62.8748 102.63 63.0735 102.875 63.2722C103.119 63.4709 103.364 63.5702 103.669 63.5702C103.975 63.5702 104.281 63.4709 104.525 63.2722C104.77 63.0735 104.892 62.8748 104.892 62.5767C104.892 62.2787 104.77 62.08 104.525 61.8813C104.281 61.6826 103.975 61.5832 103.669 61.5832Z" fill="#B78C77"/>
<path d="M97.3128 61.2852C97.1905 61.3845 97.1294 61.5336 97.1294 61.7323C97.1294 61.931 97.1905 62.08 97.3128 62.1793C97.435 62.3284 97.6184 62.378 97.8629 62.378C98.1073 62.378 98.2907 62.3284 98.4741 62.1793C98.5963 62.0303 98.6574 61.8813 98.6574 61.7323C98.6574 61.5832 98.5963 61.4342 98.4741 61.2852C98.2907 61.1362 98.1073 61.0865 97.8629 61.0865C97.6795 61.0865 97.4961 61.1362 97.3128 61.2852Z" fill="#B78C77"/>
<path d="M91.9341 63.6696C92.3008 63.7192 92.5453 63.7689 92.6675 63.7689C93.0343 63.7689 93.401 63.6199 93.89 63.3218C94.3178 62.9741 94.5012 62.6761 94.5012 62.3284C94.5012 61.7819 94.2567 61.5336 93.7066 61.5336C93.5232 61.5336 93.2787 61.8316 93.0343 62.4277C92.7898 63.0735 92.423 63.4709 91.9341 63.6696Z" fill="#B78C77"/>
<path d="M95.9681 57.0615C95.9681 56.8131 95.907 56.6144 95.7236 56.4654C95.4791 56.3164 95.2346 56.217 95.0513 56.217C94.7457 56.217 94.5012 56.3164 94.3178 56.4654C94.1344 56.6641 94.0122 56.8131 94.0122 57.0615C94.0122 57.3098 94.1344 57.5085 94.3178 57.6576C94.5012 57.8066 94.7457 57.8563 95.0513 57.8563C95.2958 57.8563 95.5402 57.8066 95.7236 57.6576C95.907 57.4589 95.9681 57.2602 95.9681 57.0615Z" fill="#B78C77"/>
<path d="M85.1496 26.9107C85.1496 26.712 85.0885 26.6127 85.0273 26.5134C85.0273 26.4637 84.9662 26.4637 84.9051 26.414C84.7217 26.2153 84.5995 26.0663 84.5384 26.0166C84.4772 26.0166 84.4773 25.9669 84.4161 25.9173C84.2328 26.265 84.1105 26.5133 84.1105 26.6624V26.7617C84.1105 27.1094 84.2939 27.3081 84.6606 27.3081C84.9662 27.3081 85.1496 27.1591 85.1496 26.9107Z" fill="#B78C77"/>
<path d="M74.7589 17.0753C75.1257 17.1746 75.4924 17.3733 75.9202 17.572C76.2258 17.721 76.4703 17.8204 76.7759 17.7707C76.8371 17.7707 76.9593 17.721 77.0204 17.721C77.2038 17.721 77.326 17.6217 77.326 17.5223C77.326 17.3236 77.2038 17.1249 77.0204 16.9759C76.8982 16.8766 76.7148 16.7772 76.5315 16.7276C76.1036 16.5785 75.6146 16.4792 75.0645 16.4792C74.8812 16.4792 74.6367 16.5289 74.3922 16.5785H74.2088C73.781 16.6779 73.4143 16.7772 73.1698 16.8269C73.5365 16.8269 73.9644 16.8766 74.3922 16.9759C74.5144 17.0256 74.6367 17.0753 74.7589 17.0753Z" fill="#B78C77"/>
<path d="M83.4993 26.116C83.9272 25.8676 84.1105 25.4205 83.9272 24.7251C83.7438 24.0296 83.4993 23.5329 83.3771 23.2845L83.3771 23.2845C82.9492 22.7381 82.5214 22.1917 81.9713 21.7446C81.5434 21.3472 80.9933 20.9499 80.4432 20.5525C79.7709 20.1054 79.1597 19.6583 78.5485 19.3106L78.3651 19.2113C77.9984 19.0126 77.6316 18.8139 77.2649 18.6648C76.5315 18.3668 75.7369 18.1184 74.8812 17.9197C74.8812 17.9197 74.8201 17.8701 74.6978 17.8701C74.5144 17.8204 74.27 17.8204 73.9644 17.8204L73.0844 17.572L74.8147 19.2113C74.9981 19.3603 75.7369 20.0623 75.9202 20.2113C75.9814 20.261 76.1647 20.4822 76.2258 20.5319C76.3481 20.6809 76.6537 20.8923 76.7759 21.0413C76.9593 21.1904 77.0816 21.1982 77.2649 21.3969C77.4483 21.5956 77.6316 21.844 77.815 22.142C78.4262 22.9865 78.9152 24.129 79.343 25.5199C79.4042 25.5695 79.4042 25.6192 79.4042 25.7186C79.4653 25.8179 79.4653 25.9669 79.5264 26.0663C79.5264 26.1656 79.4042 26.2675 79.5875 26.3147C79.5875 26.5134 79.5264 26.4637 79.5264 26.6624V27.6985C79.5875 28.0959 79.7709 29.0964 79.7709 29.6428C79.7098 30.6363 79.7709 31.4311 79.8931 31.9278C80.1376 32.7723 80.5044 33.8154 80.9933 35.1566C81.1156 35.5044 81.2378 35.9017 81.2989 36.2991C81.4212 36.6965 81.4823 37.1933 81.4823 37.7397C81.5434 38.3358 81.5434 38.7828 81.5434 39.1802C81.5434 39.528 81.4823 39.975 81.2989 40.3724C81.2989 40.4221 81.2378 40.4221 81.2378 40.4718C81.0544 40.9188 80.9933 41.3659 80.9933 41.7136C80.9933 42.1607 81.0544 42.4587 81.1767 42.7071C81.3601 42.9555 81.5434 43.0548 81.7268 43.1045C81.9101 43.1542 82.0935 43.1045 82.1546 43.0051C82.2769 42.9058 82.338 42.8064 82.338 42.7568C82.3991 42.7071 82.3991 42.6574 82.3991 42.6077V42.7071C82.338 42.9058 82.2158 43.3529 81.9101 43.9986C81.6657 44.6444 81.5434 45.0915 81.5434 45.3398C81.5434 45.5882 81.5434 45.7869 81.6045 45.9856C81.7268 46.1843 81.9713 46.3333 82.2769 46.3333C82.1546 46.5817 82.0935 46.8797 82.0324 47.1778C81.9101 47.6745 81.849 48.2706 81.7879 48.8666L81.7879 48.8667C81.7268 48.966 81.7268 49.115 81.7268 49.2144C81.7268 49.4628 81.6657 49.6615 81.6657 49.9098V50.2079C81.6657 51.1517 81.7268 52.0955 81.9101 53.0393C82.0935 54.0825 82.2769 54.9766 82.3991 55.672C82.5825 56.3675 82.7047 57.4106 82.7658 58.8015C82.7658 59.1492 82.827 59.5963 82.827 60.093C82.827 60.8878 82.6436 61.4839 82.338 61.8316C82.0324 62.1297 81.6045 62.2787 81.0544 62.2787C80.7488 62.2787 80.321 61.931 79.7098 61.1858C79.2208 60.4904 78.6096 60.093 77.9373 60.093C77.5705 60.093 77.2649 60.242 77.1427 60.4407C77.0815 60.5401 77.0204 60.6891 77.0204 60.8381C77.0204 60.9872 77.0815 61.0865 77.1427 61.1858C77.2649 61.3845 77.5705 61.5832 77.9984 61.7819C78.6707 62.0303 78.9763 62.2787 78.9152 62.5271C78.9152 62.7754 78.6707 62.8251 78.1817 62.6761C77.9373 62.6264 77.5705 62.5767 77.2038 62.5271H76.1647C75.309 62.5271 74.9423 62.7754 74.9423 63.2722C75.0034 63.7689 75.2479 63.9676 75.7369 63.8682C76.287 63.7689 76.7759 63.6199 77.2038 63.4212H77.2649C77.6928 63.2722 78.0595 63.2722 78.2429 63.4709L76.8982 64.1166C75.3702 64.8617 74.7589 65.3088 74.9423 65.4081L75.309 65.5075C75.1257 65.9546 73.292 68.8209 70.6984 69.233H108C107.939 69.233 100.98 68.4879 100.797 68.4383C100.613 68.3886 100.124 68.2892 99.2687 68.0905C98.4129 67.8918 97.5572 67.6435 96.6404 67.2461C95.7236 66.8487 94.8679 66.4513 93.9511 66.0539C94.9901 65.9546 95.6014 65.8552 95.907 65.7559C96.5182 65.5572 96.8238 65.3088 96.8238 64.9611C96.8238 64.7624 96.7015 64.514 96.4571 64.2656C96.2126 63.9676 95.9681 63.8186 95.6625 63.8186C95.418 63.8186 95.1735 63.9179 94.8068 64.1166C94.6234 64.1166 94.5012 64.216 94.3178 64.3153C94.2567 64.3153 94.2567 64.3153 94.1956 64.365C93.9511 64.5637 93.6455 64.663 93.401 64.7624H93.2787C92.6675 64.7624 92.1174 64.6134 91.6896 64.3153C91.2617 64.0173 91.0172 63.6696 90.9561 63.2722C91.1395 62.4277 91.2006 61.6826 91.2006 60.9872C91.2006 60.6891 91.2006 60.4407 91.1395 60.1427C91.1395 59.944 91.1395 59.7453 91.0784 59.5466C90.895 58.4041 90.5894 57.1623 90.1004 55.8707C89.367 53.9831 89.0002 52.3935 89.0002 51.2014C89.0002 50.6549 89.0614 49.9595 89.1836 49.0157C89.1836 48.9164 89.2447 48.7673 89.2447 48.668C89.3058 48.3203 89.367 47.9229 89.4281 47.4758C89.5503 46.8797 89.6726 46.383 89.7337 45.8862V45.6379C89.8559 44.7934 89.9171 44.1476 89.9171 43.6509C89.9171 42.5084 89.7948 41.3659 89.4281 40.2234C89.0002 38.6835 88.2057 37.2429 87.1666 35.8521C86.1275 34.4612 85.4552 33.4677 85.1496 32.8716C85.0273 32.6233 84.9051 32.3252 84.7829 32.0768C84.5995 31.6795 84.4161 31.2821 84.2939 30.835C84.1105 30.1892 83.9883 29.4938 83.9272 28.7487C83.8049 27.8049 83.6827 26.9604 83.4382 26.116H83.4993Z" fill="#B78C77"/>
<path d="M77.6318 23.7285C77.6318 23.9769 77.6318 24.1259 77.5707 24.2253C77.5096 24.3246 77.3262 24.3743 77.0817 24.3743H77.0206C76.8373 24.3246 76.7761 24.0763 76.7761 23.6292C76.7761 23.2318 76.8373 22.8344 77.0206 22.437C77.0206 22.3873 77.0817 22.3377 77.0817 22.288V22.139C77.4485 22.6854 77.6318 23.2318 77.6318 23.7285Z" fill="#8C5642"/>
<path d="M79.5612 28.0736C79.7767 29.0644 80.0727 29.996 80.5576 31.0318C81.5273 32.9233 82.0122 34.3193 82.0122 35.13C82.0122 35.4002 81.9583 35.8505 81.8505 36.436C81.7428 37.0214 81.6889 37.5168 81.6889 37.9221C81.6889 38.9129 82.0122 39.6335 82.6586 40.0838C82.928 40.264 83.0896 40.3991 83.2513 40.5792C83.5206 40.8494 83.6284 41.0746 83.6284 41.2998C83.6284 41.4349 83.5745 41.7501 83.4668 42.1554C83.359 42.6058 83.3051 42.876 83.3051 43.0111C83.3051 43.2813 83.359 43.5965 83.5206 43.9118C83.6822 44.3171 83.9516 44.5423 84.2749 44.5423C84.3287 44.5423 84.4365 44.4972 84.5981 44.4072C84.7597 44.3171 84.8136 44.2721 84.8675 44.2721C85.2446 44.2721 85.4601 44.4072 85.5678 44.6323C85.6217 44.8125 85.6756 45.1277 85.6756 45.6681C85.6756 46.6589 85.3523 47.8298 84.7597 49.2259C84.7597 49.2709 84.7059 49.316 84.7059 49.406C84.0594 50.8471 83.7361 51.7479 83.7361 52.0631C83.7361 52.7386 83.9516 53.5492 84.3826 54.54C84.9213 55.801 85.5678 56.4315 86.3221 56.4315C86.8608 56.4315 87.1302 56.1162 87.0763 55.5308C87.0224 55.0804 87.1302 54.7652 87.2918 54.6751C87.3457 54.6301 87.3996 54.6301 87.4534 54.6301C87.7228 54.6301 87.9383 54.7652 88.046 55.0804C88.0999 55.3056 88.1538 55.6209 88.1538 56.1162C88.1538 56.5215 88.0999 57.062 87.9383 57.7825C87.7767 58.5031 87.7228 59.0435 87.7228 59.4488C87.7228 60.2144 87.8305 60.8899 88.046 61.4754C88.3154 62.241 88.7464 62.6463 89.339 62.6463C89.8239 62.6463 90.201 62.4662 90.5242 62.0608C90.7936 61.7456 90.9014 61.4303 90.9552 61.025C91.0091 61.3403 91.0091 61.6105 91.0091 61.8807C91.0091 62.6013 90.9014 63.3669 90.7397 64.1775C90.7936 64.6278 91.063 64.9431 91.4401 65.2133C91.8711 65.5285 92.4098 65.6636 93.0563 65.6636C93.1102 65.6636 93.1102 65.6636 93.1641 65.6636C92.8408 65.7987 92.5714 65.8438 92.356 65.8438C91.9788 65.8438 91.6017 65.7537 91.2246 65.6186C91.0091 65.5285 90.7936 65.3934 90.5781 65.2133C90.5242 65.1682 90.4704 65.1232 90.3626 64.9881C90.2549 64.853 90.0932 64.6278 89.9316 64.1775C89.8239 63.7271 89.7161 63.547 89.7161 63.547C89.6623 63.547 89.5545 63.592 89.339 63.7271C89.1235 63.8622 88.908 63.9073 88.7464 63.9073C88.3693 63.9073 87.9922 63.6821 87.615 63.1867C87.2918 62.7364 87.1302 62.286 87.0763 61.8357C87.0224 61.4303 86.7531 61.1601 86.3759 61.025C85.8911 60.935 85.514 60.7999 85.2985 60.6648C84.7059 60.3045 84.3287 59.674 84.1671 58.7733C84.1671 58.458 84.1132 58.1878 84.1132 57.9627C84.1132 57.4673 84.0594 56.9719 83.9516 56.5215C83.9516 56.4765 83.9516 56.4765 83.9516 56.4765C83.79 55.846 83.4668 55.2606 82.9819 54.7652C82.1199 53.7744 81.5812 52.3783 81.3657 50.5769C81.3657 50.4418 81.3657 50.3518 81.3657 50.2167C81.3657 49.9915 81.4195 49.7213 81.4195 49.4961C81.4195 49.361 81.4195 49.2709 81.4195 49.1358C81.4734 48.5053 81.5812 47.9199 81.6889 47.3795C81.7428 47.0642 81.8505 46.794 81.9044 46.5238C81.5812 46.4788 81.3657 46.3887 81.3118 46.1635C81.2579 45.9383 81.204 45.7132 81.204 45.488C81.204 45.2178 81.3118 44.7674 81.635 44.0919C81.9583 43.5515 82.1199 43.1011 82.1199 42.876V42.7409C82.1199 42.8309 82.1199 42.876 82.066 42.966C82.0122 43.0111 81.9583 43.1012 81.8505 43.2363C81.7428 43.3263 81.635 43.3714 81.4195 43.3263C81.204 43.2813 81.0424 43.1462 80.9347 42.921C80.8269 42.6958 80.7192 42.3356 80.7192 41.9302C80.7192 41.57 80.8269 41.1196 80.9886 40.6693C80.9886 40.6242 81.0424 40.6242 81.0424 40.5792C81.204 40.1288 81.2579 39.7235 81.2579 39.3182C81.2579 38.9129 81.2579 38.4626 81.204 37.8771C81.204 37.2917 81.1502 36.7963 81.0424 36.3459C80.9347 35.8956 80.8269 35.4903 80.7192 35.13C80.1804 33.7789 79.8572 32.6981 79.6417 31.8424C79.534 31.302 79.4801 30.5364 79.4801 29.5006C79.4801 28.9602 79.5612 28.524 79.5612 28.0736ZM80.9886 25.3574C80.6114 24.2315 80.1804 23.4659 79.8033 23.1507C80.0727 23.3308 80.4498 23.8713 81.0424 24.772C81.5273 25.4925 82.0122 25.8528 82.4431 25.8528C82.8203 25.8528 83.1435 25.7627 83.3051 25.6276C83.4668 25.4475 83.6284 25.1322 83.79 24.6819V24.7269C83.9516 25.4024 83.8439 25.8528 83.359 26.123C83.5745 26.9787 83.7361 27.8794 83.8439 28.8701C83.8977 29.5907 84.0594 30.3112 84.221 31.0318C84.0594 30.6715 83.8439 30.3112 83.5745 29.951C83.359 29.5907 82.928 29.0503 82.3893 28.3297C81.7967 27.429 81.3657 26.4833 80.9886 25.3574Z" fill="#A06C5C"/>
<path d="M73.6598 17.3421C73.983 17.3421 74.1985 17.3872 74.414 17.4322C74.5217 17.4322 74.5756 17.4772 74.6295 17.4772C75.4915 17.6574 76.2457 17.8825 76.9999 18.2428C77.3771 18.423 77.7542 18.6031 78.0774 18.7832L78.2929 18.8733C78.8855 19.2786 79.532 19.6839 80.1785 20.1343C80.7711 20.5396 81.256 20.9449 81.687 21.3953C82.2257 21.8906 82.6567 22.4311 83.0877 23.0165C83.4109 23.4218 83.6264 24.0073 83.7881 24.6828C83.6264 25.1332 83.4648 25.4484 83.3032 25.6285C83.1416 25.7636 82.8183 25.8537 82.4412 25.8537C82.0102 25.8537 81.5253 25.4934 81.0405 24.7729C80.4479 23.8722 80.0169 23.3318 79.8014 23.1516C80.2324 23.5119 80.6095 24.2325 80.9866 25.3583C81.3637 26.4842 81.8486 27.475 82.3873 28.2406C82.9799 29.0062 83.3571 29.5466 83.5726 29.8618C83.8419 30.2221 84.0574 30.5824 84.219 30.9427C84.3268 31.393 84.4884 31.7983 84.7039 32.2487C84.8117 32.5189 84.9194 32.7891 85.081 33.0593C85.4043 33.6898 86.1046 34.7256 87.1282 36.1217C88.2057 37.5628 88.96 39.0489 89.3909 40.5801C89.7142 41.751 89.9297 42.9219 89.9297 44.1379C89.9297 44.6333 89.8758 45.3088 89.7142 46.1644C89.7142 46.2545 89.7142 46.3446 89.6603 46.4347C89.4987 46.84 89.3371 47.1102 89.2293 47.2453C89.0138 47.5155 88.6906 47.6506 88.2596 47.6506C87.8825 47.6506 87.6131 47.3804 87.3976 46.84C87.236 46.4797 87.1821 46.1194 87.1821 45.8042C87.1821 45.4439 87.2899 44.8584 87.5054 43.9577C87.7209 43.057 87.8286 42.3365 87.8286 41.8411C87.8286 41.4358 87.7747 41.0305 87.7209 40.6252C87.667 40.1748 87.5592 39.7245 87.3976 39.2741C86.9666 38.0131 86.3201 37.3826 85.4582 37.3826C85.2427 37.3826 85.0272 37.5177 84.9194 37.788C84.8117 38.0582 84.5962 38.1933 84.3807 38.1933C83.7342 38.1933 83.3032 37.6078 83.0877 36.3919C83.0338 35.9866 83.0877 35.3561 83.2493 34.5004C83.4648 33.6447 83.4648 32.7891 83.2493 32.0235C83.0338 31.2129 82.7106 30.6274 82.2257 30.2221C81.7408 29.8168 81.3099 29.3214 80.9327 28.7359C80.5556 28.1505 80.3401 27.6551 80.2324 27.2948C80.1246 26.9346 79.7475 26.0789 79.1549 24.7729C78.5623 23.4218 78.0235 22.4761 77.5387 21.8006C77.3771 21.4853 77.1616 21.2602 76.9461 20.9899C76.7844 20.7648 76.5689 20.5846 76.3535 20.4495C76.2457 20.3144 76.138 20.1793 76.0302 20.0442C75.9763 19.9541 75.9225 19.9091 75.8686 19.8641C75.707 19.6839 75.4915 19.5488 75.3298 19.3687L72.8516 17.3872L73.6598 17.3421ZM80.1785 22.0708C81.3637 23.7371 81.9563 24.5477 82.0102 24.5477C82.2257 24.5477 82.3873 24.5027 82.4412 24.4576C82.4951 24.3676 82.549 24.1874 82.549 23.8722C82.549 23.2417 82.0102 22.4311 80.9866 21.3953C79.9091 20.3144 78.8317 19.6389 77.7542 19.3236C78.5084 19.9541 79.3165 20.8999 80.1785 22.0708Z" fill="#AA7C6A"/>
<path d="M82.012 24.5432C81.9582 24.5432 81.3117 23.7325 80.1803 22.0662C79.3183 20.8953 78.5102 19.9496 77.756 19.3191C78.8335 19.6343 79.911 20.3099 80.9884 21.3907C82.012 22.4265 82.5508 23.2371 82.5508 23.8676C82.5508 24.1829 82.4969 24.363 82.443 24.4531C82.3892 24.5432 82.2275 24.5432 82.012 24.5432Z" fill="#98634F"/>
<path d="M96.1841 48.9619C95.8366 49.2061 95.489 49.4503 95.0257 49.4503C94.5623 49.4503 94.2148 49.3282 93.8672 48.9619C93.5197 48.5955 93.4038 48.2292 93.4038 47.7407C93.4038 47.2523 93.5197 46.8859 93.8672 46.6417C94.2148 46.2753 94.5623 46.1532 95.0257 46.1532C95.489 46.1532 95.8366 46.2753 96.1841 46.6417C96.5316 46.8859 96.6475 47.2523 96.6475 47.7407C96.6475 48.2292 96.5316 48.5955 96.1841 48.9619Z" fill="#AD7F68"/>
<path d="M72.3191 51.9938C72.3191 51.2873 72.5972 50.7221 73.0142 50.2982C73.5703 49.7329 74.1263 49.4503 74.8214 49.4503C75.5164 49.4503 76.0725 49.7329 76.4895 50.2982C77.0456 50.7221 77.1846 51.2873 77.1846 51.9938C77.1846 52.7003 76.9065 53.2656 76.4895 53.6895C76.0725 54.1134 75.3774 54.396 74.8214 54.396C74.2653 54.396 73.5703 54.1134 73.0142 53.6895C72.5972 53.2656 72.3191 52.7003 72.3191 51.9938Z" fill="#AA7C6A"/>
<path d="M63.5592 12.2665C63.5592 12.0083 63.6222 11.8147 63.811 11.621C63.9998 11.4274 64.1885 11.3629 64.4403 11.3629C64.692 11.3629 64.8808 11.4274 65.0696 11.621C65.2584 11.8147 65.3213 12.0083 65.3213 12.2665C65.3213 12.5247 65.2584 12.7183 65.0696 12.912C64.8808 13.1056 64.692 13.1702 64.4403 13.1702C64.1885 13.1702 63.9998 13.1056 63.811 12.912C63.6222 12.7183 63.5592 12.5247 63.5592 12.2665Z" fill="#AA7C6A"/>
</svg>
