<svg width="27" height="19" viewBox="0 0 27 19" fill="none" xmlns="http://www.w3.org/2000/svg">
<path fill-rule="evenodd" clip-rule="evenodd" d="M3.30189 0.0121898L24.7259 1.95575C26.1241 2.07421 27.1345 3.1478 26.9854 4.33985L25.9078 12.8545C25.7736 13.917 24.752 14.7388 23.4992 14.7869L4.53603 15.5273C3.19004 15.5829 2.03047 14.7314 1.88879 13.5875L0.512972 2.39629C0.334003 1.02654 1.69118 -0.132189 3.30189 0.0121898Z" fill="#FF5767"/>
<path fill-rule="evenodd" clip-rule="evenodd" d="M22.2798 18.7187L18.3872 14.6391L22.4923 10.7742L22.2798 18.7187Z" fill="#FF5767"/>
<path fill-rule="evenodd" clip-rule="evenodd" d="M12.5523 3.93942C12.5274 3.31415 13.0173 2.78735 13.647 2.76218C14.2249 2.7396 14.729 3.14978 14.8193 3.7173L15.6209 11.7322C15.6459 12.3574 15.1559 12.8842 14.5262 12.9094C13.9483 12.932 13.4442 12.5218 13.354 11.9543L13.0482 8.90382L9.4353 9.27402L9.74104 12.3171C9.76602 12.9424 9.27609 13.4691 8.64635 13.4943C8.06843 13.5169 7.56434 13.1067 7.47411 12.5392L6.67621 4.51694C6.65123 3.89167 7.14115 3.36487 7.7709 3.33969C8.34882 3.31711 8.85291 3.7273 8.94314 4.29481L9.22651 7.13426L12.8394 6.76406L12.5523 3.93942Z" fill="white"/>
<path fill-rule="evenodd" clip-rule="evenodd" d="M20.4598 4.03748C20.4396 4.7242 19.8628 5.2647 19.1712 5.24508C18.4799 5.22508 17.9352 4.65238 17.9553 3.96566C17.9561 3.93419 17.9583 3.90235 17.9617 3.87089C18.0023 3.21156 18.5735 2.71031 19.2376 2.75066C19.2696 2.75251 19.3017 2.75584 19.3338 2.76028C19.99 2.79212 20.4956 3.34631 20.4635 3.99787C20.4624 4.01453 20.4613 4.03156 20.4598 4.04858V4.03748ZM17.9356 6.99909C18.0206 6.41824 18.5635 6.01621 19.1485 6.10024C19.6697 6.17576 20.0586 6.61667 20.0646 7.13977L19.7588 11.7229C19.6898 12.3056 19.1582 12.7224 18.5709 12.6539C18.0258 12.5902 17.6175 12.1271 17.6261 11.5822L17.9356 6.99909Z" fill="white"/>
</svg>
