<svg width="22" height="22" viewBox="0 0 22 22" fill="none" xmlns="http://www.w3.org/2000/svg">
<path fill-rule="evenodd" clip-rule="evenodd" d="M19.1805 4.3299e-09H2.81953C1.2625 4.3299e-09 -1.07506e-09 1.26214 -1.07506e-09 2.81953V19.1805C-1.07506e-09 20.7375 1.2625 22 2.81953 22H19.1805C20.7375 22 22 20.7375 22 19.1805V2.81953C22 1.26214 20.7375 4.3299e-09 19.1805 4.3299e-09Z" fill="#6FC4E2"/>
<path fill-rule="evenodd" clip-rule="evenodd" d="M4.22066 20.3311L1.82889 18.7301L3.42352 16.7293L0.981889 14.928L3.22406 12.4269L0.0351563 10.4758L3.07446 8.02441L4.22066 20.3311Z" fill="#0D1013"/>
<mask id="mask0" mask-type="alpha" maskUnits="userSpaceOnUse" x="2" y="7" width="14" height="15">
<path d="M2.92767 7.62265C3.05102 7.64698 15.334 10.0839 15.334 15.9272C15.334 16.6502 15.1085 19.1421 14.8258 21.9668H4.13381C3.72793 15.5855 2.93115 7.66624 2.92676 7.62265L2.92767 7.62265Z" fill="white"/>
</mask>
<g mask="url(#mask0)">
<path fill-rule="evenodd" clip-rule="evenodd" d="M2.92566 7.62225C2.92566 7.62225 4.36446 21.911 4.36446 27.598C4.36446 29.6875 4.20716 31.6611 3.35356 32.4003C2.40903 33.2183 0.301794 34.0996 -1.49084 35.5062C-2.60331 36.3794 -3.26844 36.9629 -3.85951 37.5641C-6.51491 40.2647 -6.24577 41.2278 -6.24577 41.2278C-6.24577 41.2278 -4.05677 39.4121 4.31789 38.4826L6.38699 38.0813C7.66043 37.8387 10.2535 36.6971 10.633 36.3367C12.6009 35.1256 13.5883 33.3501 13.838 31.1851C14.2234 27.8439 15.3329 17.5313 15.3329 15.927C15.3329 10.0541 2.92566 7.62225 2.92566 7.62225Z" fill="#FF5767"/>
</g>
<mask id="mask1" mask-type="alpha" maskUnits="userSpaceOnUse" x="3" y="10" width="13" height="12">
<path d="M11.327 10.672C13.5448 11.9648 15.3319 13.698 15.3319 15.9269C15.3319 16.65 15.1064 19.1419 14.8237 21.9666H4.13173C3.88309 18.0575 3.48777 13.5713 3.21777 10.672H11.327Z" fill="white"/>
</mask>
<g mask="url(#mask1)">
<path fill-rule="evenodd" clip-rule="evenodd" d="M4.3047 43.8475L15.6659 33.4381L16.214 16.1288C16.214 16.1288 17.1105 10.8413 11.3308 10.6756C7.1416 10.5556 6.08926 13.8828 8.2416 14.5278C8.2416 14.5278 8.97126 26.9899 8.8301 29.7627C8.7223 31.8787 8.29403 33.2375 6.4948 34.4486C2.69357 37.0068 -1.55867 37.0359 -5.2334 40.6609" fill="#FFC500"/>
</g>
<path fill-rule="evenodd" clip-rule="evenodd" d="M13.8146 17.3802C13.8146 17.3802 15.1478 17.4417 16.5049 17.3832C17.9799 17.3195 19.4254 17.0305 19.4763 17.142C19.4767 17.1428 19.9332 14.5103 19.6047 10.735C19.2765 6.96386 15.7011 6.92815 10.1564 7.22303C8.03595 7.33568 2.97559 7.57313 2.97559 7.57313C2.97559 7.57313 3.82075 10.1895 5.15175 12.9332C7.26155 17.283 13.8143 17.381 13.8146 17.3802Z" fill="#FF5767"/>
<path fill-rule="evenodd" clip-rule="evenodd" d="M18.0404 6.10415C18.8764 6.30957 19.2918 7.36943 18.9684 8.47162C18.645 9.57382 17.7049 10.3009 16.8689 10.0955C16.0329 9.89041 15.6174 8.83019 15.9408 7.72799C16.2642 6.6258 17.2044 5.89873 18.0404 6.10415Z" fill="#FF5767"/>
<path fill-rule="evenodd" clip-rule="evenodd" d="M18.0287 7.11332C18.3216 7.25431 18.3961 7.7535 18.1948 8.22839C17.9938 8.70329 17.5934 8.97387 17.3008 8.83287C17.0079 8.69188 16.9334 8.19269 17.1344 7.71779C17.3353 7.2429 17.7357 6.97232 18.0287 7.11332Z" fill="#0D1013"/>
<path fill-rule="evenodd" clip-rule="evenodd" d="M20.8621 7.82555C21.4924 8.25296 21.4572 9.27343 20.7833 10.1043C20.1097 10.9352 19.0526 11.2621 18.4223 10.8347C17.792 10.4069 17.8272 9.38681 18.5011 8.55593C19.1747 7.72505 20.2318 7.39815 20.8621 7.82555Z" fill="#FF5767"/>
<path fill-rule="evenodd" clip-rule="evenodd" d="M20.3884 8.53938C20.6131 8.73081 20.5515 9.14828 20.2505 9.47223C19.9495 9.79619 19.523 9.90369 19.2979 9.71263C19.0731 9.5212 19.1347 9.10336 19.4358 8.7794C19.7372 8.45545 20.1636 8.34795 20.3884 8.53938Z" fill="#0D1013"/>
<path fill-rule="evenodd" clip-rule="evenodd" d="M5.00929 0.783795C5.51639 0.718267 5.90396 0.845273 5.99783 1.16923C6.09169 1.49319 5.74959 1.83482 5.44856 1.9401C5.14753 2.04539 4.42666 2.75884 4.24039 2.93112C4.05449 3.10341 3.65776 3.09899 3.47186 2.93112C3.28596 2.76325 3.31053 2.40837 3.41686 2.16025C3.67756 1.55172 4.25359 0.881718 5.00929 0.783795Z" fill="#0D1013"/>
<path fill-rule="evenodd" clip-rule="evenodd" d="M10.8073 0.808597C10.2936 0.795712 9.91995 0.963581 9.85982 1.29858C9.80005 1.63395 10.1773 1.94135 10.489 2.01571C10.8007 2.09007 11.5952 2.73136 11.7991 2.88524C12.003 3.03876 12.399 2.99274 12.5673 2.80499C12.7356 2.61687 12.674 2.2631 12.5416 2.02491C12.2178 1.44105 11.5725 0.828108 10.8073 0.808597Z" fill="#0D1013"/>
<path fill-rule="evenodd" clip-rule="evenodd" d="M5.50297 3.20557C7.20137 3.20557 8.5782 4.5857 8.5782 6.28869C8.5782 7.99131 7.20137 9.37145 5.50297 9.37145C3.80457 9.37145 2.42773 7.99131 2.42773 6.28869C2.42773 4.5857 3.80457 3.20557 5.50297 3.20557Z" fill="#6F568E"/>
<path fill-rule="evenodd" clip-rule="evenodd" d="M10.1143 2.92949C11.8127 2.92949 13.1895 4.30999 13.1895 6.01335C13.1895 7.71634 11.8127 9.09684 10.1143 9.09684C8.4159 9.09684 7.03906 7.71634 7.03906 6.01335C7.03906 4.30999 8.4159 2.92949 10.1143 2.92949Z" fill="#6F568E"/>
<path fill-rule="evenodd" clip-rule="evenodd" d="M5.50307 4.30664C6.59463 4.30664 7.47977 5.19421 7.47977 6.28904C7.47977 7.38388 6.59463 8.27145 5.50307 8.27145C4.4115 8.27145 3.52637 7.38388 3.52637 6.28904C3.52637 5.19421 4.4115 4.30664 5.50307 4.30664Z" fill="white"/>
<path fill-rule="evenodd" clip-rule="evenodd" d="M5.50092 5.354C6.01645 5.354 6.43445 5.77294 6.43445 6.2898C6.43445 6.80629 6.01645 7.22523 5.50092 7.22523C4.98538 7.22523 4.56738 6.80629 4.56738 6.2898C4.56738 5.77294 4.98538 5.354 5.50092 5.354Z" fill="#0D1013"/>
<path fill-rule="evenodd" clip-rule="evenodd" d="M10.1149 4.03271C11.2065 4.03271 12.0916 4.92029 12.0916 6.01512C12.0916 7.10995 11.2065 7.99752 10.1149 7.99752C9.02332 7.99752 8.13818 7.10995 8.13818 6.01512C8.13818 4.92029 9.02332 4.03271 10.1149 4.03271Z" fill="white"/>
<path fill-rule="evenodd" clip-rule="evenodd" d="M10.1176 5.07793C10.6331 5.07793 11.0511 5.49686 11.0511 6.01372C11.0511 6.53022 10.6331 6.94915 10.1176 6.94915C9.60208 6.94915 9.18408 6.53022 9.18408 6.01372C9.18408 5.49686 9.60208 5.07793 10.1176 5.07793Z" fill="#0D1013"/>
<path fill-rule="evenodd" clip-rule="evenodd" d="M15.2484 17.4071C13.9779 17.3961 11.8879 17.1553 9.99922 16.5077C8.51642 15.9994 6.66366 15.0643 6.25886 13.496C6.22439 13.3624 6.08836 13.2818 5.95526 13.3168C5.82216 13.3514 5.74186 13.4879 5.77669 13.6216C6.59986 16.8104 12.3936 17.8743 15.2077 17.9056C15.2121 17.8798 15.2558 17.4329 15.2484 17.4071Z" fill="white"/>
<path fill-rule="evenodd" clip-rule="evenodd" d="M6.37893 14.82L6.2627 17.087L8.61633 16.4792L9.4208 18.5555L11.5581 17.4577L12.8033 19.294L14.5347 17.7806L13.907 17.5556L10.8563 17.0152L8.4429 16.1773L6.37893 14.82Z" fill="white"/>
</svg>
