<svg width="30" height="17" viewBox="0 0 30 17" fill="none" xmlns="http://www.w3.org/2000/svg">
<mask id="mask0" mask-type="alpha" maskUnits="userSpaceOnUse" x="0" y="0" width="30" height="17">
<path d="M30 16.0084V3.37902e-09H0V16.0084H30Z" fill="white"/>
</mask>
<g mask="url(#mask0)">
<path fill-rule="evenodd" clip-rule="evenodd" d="M26.631 9.68413C26.5941 9.68413 26.5581 9.68808 26.5215 9.68921C26.0328 7.38402 23.9457 5.62435 21.3903 5.46058C20.2576 2.28741 17.0669 3.37902e-09 13.3049 3.37902e-09C9.20059 3.37902e-09 5.77438 2.72196 4.96105 6.34747C2.2051 6.44206 0 8.56344 0 11.1736C0 13.8439 2.3062 16.0084 5.15115 16.0084H26.631C28.4917 16.0084 30.0001 14.5927 30.0001 12.8463C30.0001 11.0999 28.4917 9.68413 26.631 9.68413Z" fill="#C6E0F2"/>
</g>
<path fill-rule="evenodd" clip-rule="evenodd" d="M19.9432 1.49581C19.9274 1.17731 19.9139 0.911043 19.9029 0.697296C18.9629 1.46504 18.1298 2.23842 17.4038 3.01745C15.9858 4.53176 15.0334 5.83796 14.5459 6.93606C14.0055 8.15332 13.8796 9.18167 14.1685 10.0214C14.4169 10.7296 14.9407 11.2618 15.74 11.6184C16.359 11.8949 16.9566 11.85 17.5319 11.484C18.0684 11.148 18.5064 10.598 18.8457 9.83336C19.1431 9.1636 19.4126 8.19002 19.6545 6.9129C19.8911 5.68831 20.0108 4.6735 20.0136 3.86877C20.022 3.22386 19.9987 2.43297 19.9432 1.49581Z" fill="#33471E"/>
<path fill-rule="evenodd" clip-rule="evenodd" d="M9.16705 12.2546C9.12706 12.2078 9.09862 12.1524 9.082 12.0889C9.06511 12.0321 9.05863 11.9751 9.06201 11.9181L7.29399 12.3902L6.53783 12.0539L6.96336 12.5057L6.49756 12.8521L7.02363 12.8823L6.90338 13.3996L7.3841 12.7315L9.16705 12.2546ZM8.53594 14.0372L10.3189 13.5603C10.2789 13.5134 10.2505 13.4581 10.2338 13.3945C10.2172 13.3375 10.2105 13.2807 10.2138 13.2237L8.44582 13.6958L7.68966 13.3592L8.1152 13.8113L7.64967 14.1577L8.17546 14.188L8.05521 14.705L8.53594 14.0372Z" fill="#ECC64A"/>
<path fill-rule="evenodd" clip-rule="evenodd" d="M9.08188 12.0891C9.09849 12.1526 9.12694 12.208 9.16693 12.2549C9.30717 12.4087 9.58091 12.4675 9.98842 12.4305C10.1588 12.4172 10.354 12.3887 10.5745 12.3452L10.2137 11.0096C9.47924 11.2807 9.09511 11.5837 9.06188 11.9183C9.0585 11.9753 9.06526 12.0321 9.08188 12.0891ZM11.1403 13.7361C11.3106 13.7228 11.5058 13.6943 11.7263 13.6508L11.3655 12.315C10.6311 12.5863 10.2472 12.8893 10.2137 13.2239C10.2103 13.281 10.2171 13.3377 10.2337 13.3947C10.2506 13.4583 10.2788 13.5136 10.319 13.5605C10.4593 13.7144 10.733 13.7728 11.1403 13.7361Z" fill="#33471E"/>
<path fill-rule="evenodd" clip-rule="evenodd" d="M9.3573 10.0194C9.30379 9.83533 9.26211 9.65632 9.23198 9.4821H6.61289L6.19215 10.5918L9.3573 10.0194ZM9.17706 9.0755C9.16692 8.94815 9.16185 8.8242 9.16185 8.70391C9.16185 8.67031 9.16354 8.6384 9.16692 8.60847L5.56104 7.02161L5.91672 7.84525L9.17706 9.0755Z" fill="#43632E"/>
<path fill-rule="evenodd" clip-rule="evenodd" d="M9.53766 10.5622C9.46754 10.3781 9.40755 10.1974 9.35742 10.0198L6.19199 10.5924L5.73633 11.7975L9.53766 10.5622ZM9.2321 9.48243C9.20873 9.3452 9.19042 9.20967 9.17718 9.07583L5.91657 7.84558L6.61274 9.48243H9.2321Z" fill="#384E23"/>
<path fill-rule="evenodd" clip-rule="evenodd" d="M9.35756 10.0202C9.40768 10.1975 9.46767 10.3785 9.53779 10.5626C9.64481 10.8537 9.7783 11.1516 9.93854 11.4563C10.506 12.5476 11.2157 13.3628 12.067 13.9018C13.0186 14.5044 14.1589 14.8057 15.4876 14.8057C16.2657 14.8057 16.9135 14.6616 17.4308 14.3736C17.9284 14.0927 18.4092 13.6274 18.8733 12.9779L16.7549 7.87115C13.7365 7.97817 11.2072 8.22411 9.16718 8.60925C9.1638 8.63918 9.16211 8.67108 9.16211 8.70468C9.16211 8.82497 9.16718 8.94893 9.17732 9.07627C9.19055 9.21011 9.20886 9.34564 9.23223 9.48287C9.26237 9.65709 9.30405 9.8361 9.35756 10.0202Z" fill="#687E36"/>
<path fill-rule="evenodd" clip-rule="evenodd" d="M22.9648 10.8434V10.9188H26.696C26.6825 10.6474 25.3938 10.3128 22.8296 9.91443C22.9197 10.2055 22.9648 10.5153 22.9648 10.8434Z" fill="#ECC64A"/>
<path fill-rule="evenodd" clip-rule="evenodd" d="M22.965 10.9188C22.9616 11.093 22.945 11.2602 22.9148 11.4208C22.8982 11.5247 22.8749 11.6253 22.8447 11.7221L26.6962 10.9188H22.965Z" fill="#CDAA34"/>
<path fill-rule="evenodd" clip-rule="evenodd" d="M19.8346 11.5004C19.9582 11.3799 20.1066 11.3197 20.2804 11.3197C20.4539 11.3197 20.6009 11.3799 20.7211 11.5004C20.8445 11.6244 20.9064 11.7732 20.9064 11.9474C20.9064 12.1214 20.8445 12.2688 20.7211 12.3893C20.6009 12.513 20.4539 12.5751 20.2804 12.5751C20.1066 12.5751 19.9582 12.513 19.8346 12.3893C19.7143 12.2688 19.6543 12.1214 19.6543 11.9474C19.6543 11.7732 19.7143 11.6244 19.8346 11.5004ZM21.0416 9.5019C21.3052 9.5019 21.5308 9.59564 21.7178 9.78313C21.9048 9.97062 21.9983 10.1965 21.9983 10.4611C21.9983 10.7254 21.9048 10.9515 21.7178 11.139C21.5308 11.3262 21.3052 11.42 21.0416 11.42C20.7777 11.42 20.5524 11.3262 20.3654 11.139C20.1784 10.9515 20.0849 10.7254 20.0849 10.4611C20.0849 10.1965 20.1784 9.97062 20.3654 9.78313C20.5524 9.59564 20.7777 9.5019 21.0416 9.5019ZM22.8296 9.91358C22.8029 9.82661 22.7727 9.74303 22.7395 9.66256C22.5891 9.30763 22.3689 8.98461 22.0783 8.6935C21.4874 8.10082 20.7727 7.80463 19.9348 7.80463L16.7596 7.85489C16.6661 8.04576 16.5742 8.2533 16.4841 8.47749C16.2104 9.18396 16.0732 9.84497 16.0732 10.4611C16.0732 10.9967 16.2104 11.549 16.4841 12.118C16.641 12.4427 16.808 12.714 16.9849 12.9315C16.9615 13.1359 16.9499 13.2965 16.9499 13.4137C16.9499 13.7415 17.0333 14.0965 17.2003 14.4782C20.5124 13.8923 22.3737 13.0354 22.7846 11.907C22.8046 11.8469 22.8246 11.7851 22.8446 11.7213C22.8747 11.6244 22.8981 11.5239 22.9147 11.42C22.9448 11.2593 22.9614 11.0922 22.9648 10.9179V10.8425C22.9648 10.5144 22.9198 10.205 22.8296 9.91358Z" fill="#8BA73D"/>
<path fill-rule="evenodd" clip-rule="evenodd" d="M20.2808 11.3206C20.1071 11.3206 19.9587 11.3807 19.835 11.5013C19.7148 11.6252 19.6548 11.774 19.6548 11.9482C19.6548 12.1222 19.7148 12.2696 19.835 12.3901C19.9587 12.5141 20.1071 12.5759 20.2808 12.5759C20.4546 12.5759 20.6013 12.5141 20.7216 12.3901C20.8452 12.2696 20.9069 12.1222 20.9069 11.9482C20.9069 11.774 20.8452 11.6252 20.7216 11.5013C20.6013 11.3807 20.4546 11.3206 20.2808 11.3206Z" fill="#A2C03D"/>
<path fill-rule="evenodd" clip-rule="evenodd" d="M20.7064 10.1301C20.7999 10.0364 20.9117 9.98951 21.0421 9.98951C21.1722 9.98951 21.2823 10.0364 21.3725 10.1301C21.466 10.2205 21.5127 10.3309 21.5127 10.4616C21.5127 10.5921 21.466 10.7042 21.3725 10.7979C21.2823 10.8883 21.1722 10.9334 21.0421 10.9334C20.9117 10.9334 20.7999 10.8883 20.7064 10.7979C20.6163 10.7042 20.5712 10.5921 20.5712 10.4616C20.5712 10.3309 20.6163 10.2205 20.7064 10.1301ZM21.718 9.78367C21.531 9.59619 21.3057 9.50244 21.0421 9.50244C20.7782 9.50244 20.5529 9.59619 20.3659 9.78367C20.1789 9.97116 20.0854 10.197 20.0854 10.4616C20.0854 10.7259 20.1789 10.9521 20.3659 11.1396C20.5529 11.3268 20.7782 11.4205 21.0421 11.4205C21.3057 11.4205 21.531 11.3268 21.718 11.1396C21.905 10.9521 21.9985 10.7259 21.9985 10.4616C21.9985 10.197 21.905 9.97116 21.718 9.78367Z" fill="white"/>
<path fill-rule="evenodd" clip-rule="evenodd" d="M19.6565 10.1571C19.7272 9.46472 20.3443 8.96098 21.0345 9.03186C21.725 9.10273 22.2277 9.7211 22.1571 10.4134C22.0864 11.1058 21.4693 11.6095 20.7788 11.5387C20.0883 11.4681 19.5858 10.8494 19.6565 10.1571Z" fill="white"/>
<path fill-rule="evenodd" clip-rule="evenodd" d="M20.3943 10.2839C20.4439 9.79741 20.8776 9.44333 21.3628 9.49303C21.848 9.54272 22.2015 9.97756 22.1516 10.4641C22.102 10.9509 21.6683 11.3049 21.1831 11.255C20.6979 11.2053 20.3447 10.7704 20.3943 10.2839Z" fill="#2F2E2C"/>
<path fill-rule="evenodd" clip-rule="evenodd" d="M20.1939 9.93221C20.2207 9.66933 20.455 9.47789 20.7172 9.505C20.9794 9.53182 21.1703 9.76675 21.1433 10.0296C21.1165 10.2925 20.8822 10.4837 20.62 10.4568C20.3578 10.43 20.1672 10.1951 20.1939 9.93221Z" fill="white"/>
<path fill-rule="evenodd" clip-rule="evenodd" d="M10.5356 2.60274C10.277 2.41722 10.0608 2.26221 9.88672 2.13797C9.90221 3.35353 9.98867 4.48862 10.1461 5.54296C10.448 7.59798 10.8766 9.15802 11.4314 10.2234C12.0468 11.4042 12.7722 12.1423 13.6075 12.4374C14.3152 12.6825 15.057 12.602 15.8323 12.1959C16.433 11.8814 16.7693 11.3842 16.8408 10.7045C16.9121 10.0746 16.7544 9.38843 16.368 8.64667C16.0295 7.99696 15.4364 7.18009 14.5887 6.19634C13.7787 5.24959 13.0606 4.52477 12.4334 4.02216C11.935 3.61472 11.3022 3.14176 10.5356 2.60274Z" fill="#43632E"/>
</svg>
