<svg width="30" height="12" viewBox="0 0 30 12" fill="none" xmlns="http://www.w3.org/2000/svg">
<path fill-rule="evenodd" clip-rule="evenodd" d="M25.0759 6.885V9.0059C25.363 9.07766 25.6583 9.11084 25.9539 9.1042C26.9472 9.1042 27.444 8.70534 27.444 7.90736C27.444 7.22906 26.9897 6.88992 26.0807 6.88992H25.0759V6.885ZM25.0759 2.57193V4.63385H25.9271C26.719 4.63385 27.1148 4.26767 27.1148 3.53531C27.1311 3.23843 26.9982 2.95311 26.7612 2.77591C26.5051 2.59331 26.1968 2.49993 25.8832 2.51049C25.6132 2.51664 25.3437 2.53704 25.0759 2.57193ZM25.91 0.0848541C27.1814 0.0848541 28.1269 0.342901 28.7463 0.858994C29.359 1.351 29.7067 2.10475 29.6853 2.89388C29.7331 3.90837 29.2453 4.87297 28.4025 5.43011C28.8678 5.61787 29.267 5.94129 29.5487 6.35908C29.866 6.8533 30.0228 7.43476 29.9974 8.02287C29.9974 9.16982 29.6072 10.0373 28.8268 10.6255C28.0464 11.2136 27.018 11.5085 25.7417 11.5102C25.2718 11.5102 24.5987 11.4996 23.7224 11.4782C23.0688 11.4291 22.5552 10.8946 22.5274 10.2347V1.38738C22.5242 1.06347 22.652 0.752089 22.881 0.524763C23.101 0.28441 23.4078 0.143345 23.7322 0.134006C24.4021 0.10132 25.1279 0.0848541 25.91 0.0848541Z" fill="#6F578E"/>
<path fill-rule="evenodd" clip-rule="evenodd" d="M14.9847 6.78774V9.03151C15.3023 9.08091 15.6222 9.11212 15.9432 9.1249C16.8731 9.1249 17.3382 8.7366 17.3382 7.96001C17.3506 7.62971 17.2391 7.30678 17.026 7.05561C16.7697 6.79634 16.4122 6.66584 16.0505 6.69926C15.6932 6.70197 15.3369 6.73392 14.9847 6.79511V6.78774ZM14.9847 2.57297V4.36701C15.4081 4.29255 15.8378 4.25962 16.2675 4.26871C17.235 4.22546 18.1803 4.56804 18.899 5.22225C19.5782 5.88384 19.9433 6.8074 19.9013 7.75848C19.9013 8.93641 19.5226 9.86218 18.7649 10.5356C18.0071 11.2089 16.935 11.5432 15.5481 11.5383C14.7903 11.5383 14.1489 11.5228 13.6239 11.4916C13.299 11.4874 12.9898 11.3498 12.7679 11.1106C12.5425 10.8764 12.4189 10.5619 12.424 10.2357V1.36138C12.4306 0.697588 12.9652 0.162326 13.6239 0.159622H17.9893C18.6527 0.189851 19.1663 0.756079 19.1363 1.42454C19.1082 2.05074 18.6107 2.55208 17.9893 2.58035H14.9847V2.57297Z" fill="#FFC609"/>
<path fill-rule="evenodd" clip-rule="evenodd" d="M6.62012 1.07085L8.77602 1.41737L7.54686 3.32937L9.52473 3.73979L8.4102 5.45027L10.1808 5.67145L9.19549 7.34753L6.62012 1.07085Z" fill="#231F1F"/>
<path fill-rule="evenodd" clip-rule="evenodd" d="M6.4735 6.67235L5.23215 3.46274L3.95665 6.65761H6.46618L6.4735 6.67235ZM8.08798 10.7962L7.41731 9.07587H3.01284L2.33485 10.7962C2.16145 11.3174 1.65955 11.6544 1.11545 11.6146C0.811575 11.6222 0.518675 11.4988 0.310645 11.2754C0.106518 11.0631 -0.00493569 10.7773 0.000917435 10.4816C-0.00542345 10.3263 0.0211595 10.1712 0.0789591 10.027L3.70058 1.17964C4.02567 0.393214 4.55587 -5.74646e-09 5.29068 -5.74646e-09C5.99793 -5.74646e-09 6.51739 0.393214 6.84907 1.17964L10.4585 9.89425C10.5224 10.0501 10.5553 10.2172 10.556 10.3858C10.5321 11.0953 9.9422 11.6509 9.23812 11.6268C8.72353 11.6094 8.26992 11.2816 8.08798 10.7962Z" fill="#F05A69"/>
<path fill-rule="evenodd" clip-rule="evenodd" d="M28.9032 2.53206C29.0012 2.52542 29.0861 2.60038 29.0927 2.69917C29.099 2.79821 29.0249 2.88349 28.9266 2.89013C28.8288 2.89652 28.7442 2.8223 28.7373 2.72375V2.709C28.7359 2.61438 28.8095 2.53599 28.9032 2.53206Z" fill="#644F82"/>
<path fill-rule="evenodd" clip-rule="evenodd" d="M23.2527 7.94945C23.3991 7.93741 23.5273 8.04726 23.5393 8.19472C23.551 8.34217 23.442 8.47144 23.2957 8.48348C23.1493 8.49553 23.021 8.38567 23.0093 8.23822C23.0091 8.236 23.0088 8.23404 23.0088 8.23207V8.21733C23.0059 8.07675 23.1135 7.95854 23.2527 7.94945Z" fill="#644F82"/>
<path fill-rule="evenodd" clip-rule="evenodd" d="M24.264 9.74161C24.4103 9.72957 24.5386 9.83942 24.5505 9.98688C24.5622 10.1343 24.4532 10.2636 24.3069 10.2756C24.1606 10.2877 24.0323 10.1778 24.0206 10.0304C24.0203 10.0282 24.0201 10.0262 24.0201 10.0242V10.0095C24.0172 9.86891 24.1247 9.7507 24.264 9.74161Z" fill="#644F82"/>
<path fill-rule="evenodd" clip-rule="evenodd" d="M23.0896 8.93949C23.236 8.92744 23.3643 9.0373 23.3762 9.18475C23.3879 9.33221 23.2789 9.46148 23.1326 9.47352C22.9862 9.48556 22.858 9.37571 22.8462 9.22825C22.846 9.22604 22.8458 9.22407 22.8458 9.22211V9.20736C22.8428 9.06679 22.9504 8.94858 23.0896 8.93949Z" fill="#644F82"/>
<path fill-rule="evenodd" clip-rule="evenodd" d="M23.2945 9.91864C23.5413 9.9877 23.725 10.1966 23.7628 10.4519C23.7767 10.7284 23.5686 10.9656 23.2945 10.9852C23.0872 10.9852 22.9214 10.4691 22.9214 10.2725C22.928 10.0713 23.0948 9.91323 23.2945 9.91864Z" fill="#644F82"/>
<path fill-rule="evenodd" clip-rule="evenodd" d="M28.8087 3.50754C28.9501 3.50754 29.0233 3.68694 28.9745 3.90812C28.9565 4.09933 28.8223 4.25931 28.638 4.30871C28.4965 4.30871 28.4233 4.12931 28.4721 3.90812C28.4902 3.71692 28.6243 3.55694 28.8087 3.50754Z" fill="#644F82"/>
<path fill-rule="evenodd" clip-rule="evenodd" d="M23.9223 2.16483C24.0686 2.15279 24.1969 2.26264 24.2089 2.4101C24.2206 2.55755 24.1116 2.68682 23.9652 2.69886C23.8189 2.7109 23.6906 2.60105 23.6789 2.45359C23.6787 2.45138 23.6784 2.44942 23.6784 2.44745V2.43271C23.6728 2.29115 23.7818 2.17146 23.9223 2.16483Z" fill="#644F82"/>
<path fill-rule="evenodd" clip-rule="evenodd" d="M27.7655 10.0097C27.8879 10.0036 27.992 10.0984 27.9981 10.2218C28.0042 10.3452 27.9101 10.4504 27.7877 10.4565C27.6696 10.4624 27.5677 10.3739 27.5557 10.2555C27.553 10.1355 27.6464 10.0358 27.7655 10.0318V10.0097Z" fill="#644F82"/>
<path fill-rule="evenodd" clip-rule="evenodd" d="M29.2255 8.35466C29.4035 8.40381 29.5181 8.84618 29.4694 9.0649C29.4486 9.35441 29.2009 9.57338 28.9133 9.55642C28.7353 9.50727 28.7353 8.89041 28.7914 8.67169C28.8226 8.4709 29.0092 8.33352 29.2084 8.36449L29.2255 8.35466Z" fill="#644F82"/>
<path fill-rule="evenodd" clip-rule="evenodd" d="M28.3965 9.67209C28.5658 9.63277 28.7348 9.73919 28.7738 9.90974C28.8128 10.0803 28.7072 10.2506 28.538 10.2899C28.3687 10.3293 28.1997 10.2228 28.1607 10.0523C28.1556 10.0299 28.1529 10.0071 28.1526 9.98421C28.1417 9.83233 28.2475 9.69716 28.3965 9.67209Z" fill="#644F82"/>
<path fill-rule="evenodd" clip-rule="evenodd" d="M23.3791 1.63637C23.1333 1.56658 22.9508 1.35768 22.9133 1.10308C22.8991 0.827334 23.1059 0.590668 23.3791 0.569778C23.584 0.569778 23.7498 1.08587 23.7498 1.28248C23.7432 1.48277 23.5779 1.64055 23.3791 1.63637Z" fill="#644F82"/>
<path fill-rule="evenodd" clip-rule="evenodd" d="M24.6687 0.919965C24.8636 0.908168 25.0314 1.05759 25.0431 1.2542C25.0548 1.45056 24.9065 1.61939 24.7114 1.63144C24.5166 1.64323 24.349 1.49357 24.3371 1.2972V1.29598V1.27631C24.3317 1.08585 24.4797 0.9266 24.6687 0.919965Z" fill="#644F82"/>
<path fill-rule="evenodd" clip-rule="evenodd" d="M22.9745 2.16433C23.0725 2.1577 23.1574 2.23265 23.1639 2.33145C23.1703 2.43049 23.0962 2.51577 22.9979 2.5224C22.9001 2.52879 22.8154 2.45457 22.8086 2.35603V2.34128C22.8072 2.24666 22.8808 2.16827 22.9745 2.16433Z" fill="#644F82"/>
</svg>
