<svg width="58" height="40" viewBox="0 0 58 40" fill="none" xmlns="http://www.w3.org/2000/svg">
<path fill-rule="evenodd" clip-rule="evenodd" d="M21.8064 7.07797C12.8863 7.07797 5.62891 14.3613 5.62891 23.3132C5.62891 32.2651 12.8863 39.5484 21.8064 39.5484C30.7265 39.5484 37.9839 32.2651 37.9839 23.3132C37.9839 14.3613 30.7265 7.07797 21.8064 7.07797Z" fill="#885D5D"/>
<path fill-rule="evenodd" clip-rule="evenodd" d="M21.8059 38.379C13.5148 38.379 6.79395 31.6341 6.79395 23.3135C6.79395 14.9936 13.5148 8.24789 21.8059 8.24789C30.097 8.24789 36.8179 14.9936 36.8179 23.3135C36.8179 31.6341 30.097 38.379 21.8059 38.379Z" fill="#AD7F68"/>
<path d="M36.6885 11.8467L36.5296 12.129C35.815 13.1369 34.4072 14.2646 32.4052 15.5325C30.4132 16.7499 27.6689 17.8651 24.1923 18.7772L24.1124 19.1807C23.1191 21.076 22.9984 22.2061 23.7996 22.5809C24.5909 23.0061 26.2352 22.5045 28.782 21.0863C31.3288 19.668 33.4502 18.0572 35.1463 16.2539C36.8424 14.4506 37.7553 13.2211 37.8951 12.515L37.9256 12.1013C37.8765 11.8287 37.6986 11.6871 37.4412 11.6866C37.1048 11.5649 36.8769 11.6755 36.6885 11.8467Z" fill="#D93D4B"/>
<path d="M37.3211 14.2834L36.3421 14.0816C36.1266 13.8837 35.9357 13.6201 35.7561 13.2997C35.3968 12.6591 35.3091 12.0508 35.4706 11.4703L36.669 12.1423L36.8391 11.6934C37.0113 11.3512 37.2478 11.093 37.5643 10.8986L37.7993 11.3484C37.9454 11.7208 37.9803 12.0703 37.9128 12.4105L39.2448 12.0005C39.2242 12.2796 39.1389 12.5925 38.9691 12.9234C38.6315 13.5739 38.0874 14.0401 37.3211 14.2834Z" fill="#D93D4B"/>
<path d="M35.7895 8.27442C35.7895 8.27442 35.8314 8.31719 35.7895 8.27442C37.1324 8.70222 38.0977 9.68613 38.8531 11.1406C38.7272 11.5256 38.6013 11.9106 38.4754 12.2101C38.3915 12.3812 38.3075 12.5523 38.2236 12.6379C37.636 10.9267 36.6708 9.85723 35.4117 9.42943C35.4117 9.42943 35.4117 9.42943 35.3698 9.38665C34.8242 9.17276 34.3205 9.17275 33.8589 9.30108C33.4812 9.42941 33.1454 9.60052 32.8517 9.81441C32.4739 10.1139 32.0962 10.4989 31.7605 10.8411C31.3827 11.3116 31.047 11.825 30.7952 12.3383C30.5014 12.98 30.2076 13.6217 29.9978 14.2634C29.7459 15.1189 29.4521 16.1884 29.2423 17.4289C29.0324 17.5573 28.7806 17.6428 28.5708 17.7712C28.319 17.9423 28.1091 18.0706 27.8573 18.2417C28.1511 16.4878 28.4869 15.0333 28.8226 13.9211L28.8646 13.8783C29.0745 13.1511 29.4102 12.4666 29.704 11.825L29.746 11.7822C30.0817 11.1833 30.4594 10.6272 30.8791 10.1138C31.2569 9.64328 31.6765 9.2155 32.1802 8.87327L32.2641 8.87328C32.6418 8.57383 33.1035 8.35994 33.5651 8.23161C34.2786 7.93217 35.034 8.01774 35.7895 8.27442Z" fill="#54B8AC"/>
<path d="M27.8194 14.2022C27.9817 14.0368 28.2089 13.8714 28.4036 13.7391C28.5659 13.6399 28.7606 13.5076 28.9553 13.3753C29.1176 13.276 29.2798 13.1768 29.4745 13.1106C29.9938 12.7798 30.578 12.5152 31.1946 12.2837C31.7463 12.0521 32.2331 11.8206 32.6874 11.6882C33.9206 11.159 34.7969 10.7951 35.2512 10.5305C35.7056 10.332 36.095 9.93507 36.3871 9.43888C36.452 9.30656 36.4844 9.20732 36.5818 9.10808C36.6792 8.87652 36.809 8.61189 36.8739 8.2811C36.9064 8.18186 36.9388 8.08262 36.9713 7.98338C37.3282 7.61951 37.6528 7.61951 38.0098 7.98339L42.2935 12.3499C42.6505 12.7138 42.6505 13.0446 42.2935 13.4085C40.6059 12.7469 39.4376 13.0115 38.7237 14.1362C38.4965 14.6324 38.107 15.4924 37.6202 16.7825C37.458 17.2126 37.2308 17.7088 37.0036 18.2711C36.4194 19.6605 35.8028 20.8182 35.0888 21.6783C34.3099 22.6707 33.239 23.4315 32.0058 23.9607C30.8375 24.4238 29.6042 24.9531 28.2737 24.3907C26.4563 23.5968 25.1582 20.8181 25.1582 20.8181C24.9959 19.7265 25.1258 18.6018 25.6126 17.3778C26.0669 16.0547 26.8134 15.0292 27.8194 14.2022Z" fill="#54B8AC"/>
<path d="M10.944 9.57985L12.4916 10.0752L13.7224 22.1939L12.0502 21.0784C11.8212 20.9258 11.684 20.7149 11.6159 20.4457C11.5592 20.1766 11.6058 19.9195 11.7441 19.686L12.4583 18.5652L8.49507 16.0637C8.30033 15.9462 8.17458 15.7705 8.11782 15.5364C8.06102 15.3141 8.08454 15.092 8.18831 14.8934L10.944 9.57985Z" fill="#3A2058"/>
<path d="M11.8568 12.5042C11.7561 11.7909 11.8727 11.2186 12.2296 10.7875C12.3448 10.6476 12.4712 10.5429 12.6207 10.4383L12.8044 10.3454C13.9179 9.96368 15.1803 9.62922 16.6145 9.35382C19.4714 8.80297 21.6844 8.79914 23.2763 9.34241C23.8948 9.55498 24.2489 9.93023 24.3618 10.4566C24.3956 10.6203 24.4176 10.9009 24.4392 11.2866C24.4607 11.7075 24.4825 12.0465 24.5275 12.2804C24.5724 12.561 24.81 13.4969 25.2518 15.0879C25.7954 17.065 26.2141 18.691 26.5194 19.9426C27.6385 24.6332 28.0053 28.0122 27.6427 30.1029C27.3737 31.6447 26.8994 32.8702 26.2314 33.756C25.667 34.4903 24.8047 35.2002 23.6214 35.8622C22.542 36.3258 21.3141 36.637 19.9491 36.7841C17.7927 37.0219 16.1658 36.6538 15.0569 35.6798C14.2453 34.9757 13.7101 33.8752 13.44 32.4016C13.3613 31.9339 13.3056 31.4662 13.2843 30.9752L13.2748 30.3908C13.2987 30.1221 13.3112 29.8066 13.3124 29.456C13.3367 25.7044 13.2877 23.2616 13.1884 22.1276C13.1116 21.1105 12.664 17.8949 11.8568 12.5042Z" fill="#F55361"/>
<path d="M24.7594 18.1131C25.1494 18.0911 25.4588 18.1389 25.6648 18.2332C26.1226 18.4802 26.4981 19.3347 26.7797 20.82C26.8132 21.0656 26.8585 21.2527 26.9039 21.3815C26.9607 21.5219 26.9946 21.6857 27.0283 21.8728C27.4095 24.3986 27.611 25.8368 27.6557 26.1876C27.8225 27.6959 27.8524 29.0283 27.7338 30.1733L27.594 30.8273C27.4431 31.3527 27.2235 31.8544 26.9583 32.3093C26.0704 33.7788 24.7146 34.6037 22.8793 34.8076C21.0441 35.0115 19.6229 34.8311 18.6043 34.2782C18.0893 34.0075 17.7692 33.7142 17.6327 33.3982C18.8433 31.4507 19.3678 28.9398 19.2064 25.8421C19.1524 24.8718 19.041 23.9131 18.8494 22.9423L18.5897 21.7844C18.6018 21.5857 18.5801 21.235 18.5359 20.7323C18.4916 20.2764 18.4928 19.9374 18.528 19.7038C18.6451 18.9796 19.2427 18.5844 20.3322 18.5064C20.9401 18.4618 21.5365 18.4172 22.1329 18.3609C22.7752 18.293 23.2225 18.2596 23.4634 18.237C24.0828 18.1691 24.5186 18.1356 24.7594 18.1131Z" fill="#F78F9F"/>
<path d="M22.8751 16.7437L23.2406 18.0904C23.4888 19.1729 23.6339 20.1759 23.6761 21.0862C23.7873 24.0281 22.7812 25.5942 20.6725 25.7846C19.0651 25.9372 17.6963 24.9167 16.5513 22.723C16.1991 22.0359 15.8912 21.2697 15.6277 20.4246L15.3353 19.3683L22.8751 16.7437Z" fill="#F55260"/>
<path d="M22.5806 17.2886L22.8433 18.4372C23.0181 19.3611 23.0899 20.2187 23.1028 21.0102C23.0971 23.5296 22.2536 24.9116 20.5576 25.1298C19.2303 25.3098 18.1117 24.4485 17.2314 22.5723C16.9527 21.9778 16.7182 21.3306 16.5135 20.6044L16.2944 19.6935L22.5806 17.2886Z" fill="#3A2058"/>
<path d="M18.86 21.7711L18.0136 20.7631L23.6568 21.3279L23.6328 21.7137L22.8847 22.6356C22.7696 22.7756 22.6203 22.8571 22.4482 22.8683C22.2646 22.8795 22.1156 22.8206 21.9782 22.6916L21.2572 21.988L20.3835 22.699C20.234 22.8156 20.0618 22.8736 19.8668 22.838C19.6718 22.8141 19.5229 22.7201 19.4086 22.5561L18.86 21.7711Z" fill="white"/>
<path d="M24.0323 7.65543C25.2027 7.4637 26.1702 7.43194 26.9574 7.56022C27.7782 7.70006 28.486 8.03452 29.0697 8.55211C29.642 9.08114 30.1575 9.83934 30.616 10.8497C31.3429 12.4914 31.911 14.6601 32.3089 17.3329C32.4305 18.1474 32.3161 18.9039 31.988 19.591C31.66 20.2666 31.2201 20.7011 30.646 20.8715C29.2161 21.3148 27.8766 21.6323 26.6499 21.8238C24.5904 22.1622 22.8803 22.2378 21.5421 22.0507C19.3605 21.7466 17.5856 20.7786 16.2174 19.1695L12.4146 10.8C15.9495 9.80056 18.4938 9.06217 20.0587 8.61925C21.6911 8.14211 23.0194 7.82467 24.0323 7.65543Z" fill="#F55361"/>
<path d="M10.2705 7.34046C10.6657 6.6623 11.2386 6.22746 11.9893 6.03595C12.74 5.84445 13.442 5.95615 14.1073 6.35896C14.7726 6.76177 15.1992 7.34577 15.3871 8.11094C15.575 8.87612 15.4773 9.59174 15.0821 10.2699C14.6869 10.9481 14.114 11.3829 13.3633 11.5744C12.6126 11.7659 11.9106 11.6664 11.2452 11.2635C10.5799 10.8607 10.1533 10.2767 9.96544 9.51156C9.76566 8.74634 9.87528 8.01863 10.2705 7.34046Z" fill="white"/>
<path d="M19.9882 4.6258C20.6535 5.02861 21.0801 5.6126 21.268 6.37778C21.4559 7.14295 21.3582 7.85858 20.963 8.53674C20.5678 9.21491 19.9949 9.64974 19.2441 9.85338C18.4934 10.057 17.7914 9.94532 17.1261 9.53038C16.4608 9.12756 16.0342 8.54357 15.8463 7.77839C15.6584 7.01322 15.7561 6.29759 16.1513 5.61943C16.5465 4.94126 17.1194 4.50643 17.8701 4.31492C18.6089 4.11124 19.3229 4.22298 19.9882 4.6258Z" fill="white"/>
<path d="M16.9748 0.356074C17.2611 0.255444 17.5673 0.256481 17.8934 0.359185C18.1867 0.452736 18.454 0.599154 18.6953 0.798435C18.7901 0.884857 18.8709 0.979411 18.9237 1.09023C18.9846 1.21528 18.9905 1.32508 18.9556 1.4115C18.9177 1.50909 18.8469 1.59753 18.7132 1.65649C18.5905 1.7185 18.4798 1.73578 18.3701 1.70527C18.3043 1.68697 18.0958 1.629 17.7448 1.53138C17.4156 1.43986 17.1902 1.40121 17.0795 1.41849C16.9329 1.43779 16.7843 1.4205 16.6476 1.35848C16.489 1.29035 16.4003 1.18156 16.3783 1.04329C16.3564 0.905028 16.3923 0.770832 16.505 0.657991C16.6098 0.530916 16.7634 0.441459 16.9748 0.356074Z" fill="#3A2058"/>
<path d="M9.83474 2.43802C10.0851 2.17919 10.3505 2.0241 10.6448 1.981C10.8593 1.94734 11.0467 1.94494 11.1988 1.98793C11.3538 2.04212 11.4487 2.13641 11.4944 2.26784C11.5401 2.39928 11.5031 2.52896 11.4002 2.67635C11.3054 2.80959 11.199 2.89803 11.0591 2.94758C10.9521 2.98828 10.7775 3.13097 10.5243 3.3786C10.5133 3.38155 10.3665 3.54074 10.0809 3.84497C10.0074 3.92456 9.90046 3.96526 9.75994 3.96706C9.62231 3.98007 9.51995 3.94767 9.43087 3.87578C9.35568 3.81214 9.31864 3.7143 9.30589 3.57402C9.29892 3.45613 9.31393 3.33234 9.3538 3.21385C9.46591 2.92028 9.63355 2.6597 9.83474 2.43802Z" fill="#3A2058"/>
<path d="M11.6034 4.68147C12.1614 4.53317 12.7188 4.5124 13.2758 4.59597C13.81 4.67944 14.3211 4.86715 14.7862 5.15902C15.0389 4.56882 15.405 4.06028 15.8844 3.64498C16.3754 3.20654 16.9453 2.90757 17.583 2.74801C18.2206 2.57687 18.869 2.56809 19.5167 2.72161L21.1139 1.55755L21.3214 3.63375L21.4007 3.70366L22.5966 3.31465L22.3057 4.89015C22.4523 5.19223 22.5762 5.4942 22.6545 5.81917C22.9341 6.95658 22.7817 8.03414 22.1974 9.04028C21.6018 10.0464 20.746 10.6919 19.6301 10.9769C19.0836 11.1253 18.5261 11.146 17.9578 11.0624C17.4235 10.979 16.9125 10.7912 16.4473 10.4994C16.1946 11.0896 15.8285 11.5981 15.3491 12.0134C14.8582 12.4403 14.2883 12.7392 13.6506 12.9104C12.5347 13.1954 11.4776 13.0401 10.4905 12.4445C9.50339 11.849 8.87007 10.9767 8.59045 9.83927L8.52351 9.52595L7.35537 8.70932L8.51809 8.09988L8.51823 8.0651L7.18305 6.38981L9.47088 6.00553C10.0423 5.34715 10.7494 4.89806 11.6034 4.68147ZM11.9613 6.14385C11.2439 6.32624 10.6962 6.74125 10.3181 7.40046C9.94009 8.04808 9.83482 8.74325 10.0251 9.47449C10.2041 10.2057 10.6226 10.764 11.2579 11.1493C11.8933 11.5347 12.564 11.6303 13.2927 11.448C14.0214 11.2657 14.5577 10.8506 14.9358 10.203C15.3138 9.55537 15.4191 8.86019 15.2288 8.12895C15.0385 7.39772 14.6427 6.8395 13.996 6.4541C13.3606 6.06875 12.6786 5.96145 11.9613 6.14385ZM21.197 6.19545C21.018 5.46426 20.6109 4.906 19.9755 4.52065C19.3402 4.1353 18.6582 4.028 17.9408 4.22198C17.2234 4.40438 16.6757 4.83098 16.2977 5.4786C15.9196 6.12621 15.8144 6.8098 16.0047 7.54103C16.1836 8.27222 16.5908 8.83049 17.2375 9.21589C17.8729 9.60124 18.5549 9.70853 19.2723 9.51455C19.9896 9.33215 20.5373 8.90555 20.9154 8.25794C21.2821 7.61027 21.3759 6.92664 21.197 6.19545Z" fill="#6E5690"/>
<path d="M20.579 6.85459C20.444 7.40504 20.129 7.772 19.679 8.00135C19.229 8.27657 18.734 8.36831 18.2389 8.2307C17.9239 8.13896 17.6989 8.00135 17.5189 7.81787C17.4289 7.72613 17.3839 7.63439 17.3839 7.49678C17.3839 7.35917 17.4289 7.26743 17.4739 7.12982C17.5639 7.03808 17.6539 6.9922 17.7889 6.9922C17.9239 6.9922 18.0139 7.03807 18.1489 7.08394C18.2389 7.17568 18.3739 7.26742 18.5539 7.3133V7.26743C18.779 7.35917 19.049 7.3133 19.274 7.17569V7.12982C19.499 6.99221 19.679 6.80872 19.724 6.5335V6.57937C19.769 6.39589 19.769 6.25828 19.724 6.0748C19.679 5.93719 19.724 5.84544 19.769 5.70783C19.859 5.61609 19.949 5.52435 20.039 5.52435C20.174 5.52435 20.264 5.52435 20.399 5.61609C20.489 5.70783 20.579 5.79958 20.624 5.89132C20.624 6.25828 20.624 6.57937 20.579 6.85459Z" fill="#4A3569"/>
<path d="M12.0961 10.2913C12.0502 10.2913 12.0502 10.2913 12.0961 10.2913C11.7748 10.1977 11.5453 10.0573 11.3617 9.87018C11.2699 9.7766 11.224 9.68302 11.1781 9.54265C11.1781 9.40228 11.224 9.3087 11.2699 9.16833C11.3617 9.07475 11.4535 9.02795 11.5912 9.02795C11.7289 9.02795 11.8207 9.07474 11.9584 9.12153C12.0502 9.21511 12.1879 9.30869 12.3716 9.35548L12.3257 9.3087C12.5552 9.40228 12.8306 9.35549 13.0601 9.21512V9.16833C13.2896 9.02796 13.4733 8.84079 13.5651 8.56005V8.60685C13.611 8.41968 13.611 8.27931 13.5651 8.09215C13.5192 7.95178 13.5651 7.8582 13.611 7.71783C13.7028 7.62425 13.7946 7.53067 13.9323 7.53067C14.07 7.53067 14.1618 7.53067 14.2995 7.62425C14.3913 7.71783 14.4831 7.81141 14.4831 7.90499C14.5291 8.18573 14.5291 8.46647 14.4831 8.794C14.3454 9.30869 14.0241 9.68302 13.5651 9.96376H13.611C13.0601 10.3849 12.5552 10.4317 12.0961 10.2913Z" fill="#4A3569"/>
<path d="M28.1407 6.90343C28.3263 6.58181 28.5424 6.33859 28.8116 6.17148C29.0809 6.00436 29.3489 5.94216 29.6159 5.98488C29.9755 6.04145 30.2266 6.27209 30.3916 6.67449C30.5567 7.0769 30.577 7.51731 30.4434 8.01995C30.3098 8.52259 30.0756 8.93067 29.7396 9.23266L25.3241 7.88855C25.2473 7.33744 25.3244 6.84056 25.5439 6.39904C25.7747 5.95637 26.0915 5.69127 26.4953 5.61527C26.8425 5.54502 27.1717 5.63963 27.4804 5.87604C27.7914 6.13551 28.0074 6.47452 28.1407 6.90343Z" fill="#F55361"/>
<path d="M28.8276 7.56967C28.8876 7.36564 28.9985 7.21466 29.1467 7.09482C29.2836 6.97612 29.4283 6.93812 29.5573 6.9716C29.6873 7.0166 29.7778 7.12385 29.8286 7.29333C29.8794 7.46281 29.8635 7.65072 29.8035 7.85475C29.7435 8.05878 29.6338 8.22129 29.4856 8.34114C29.3487 8.45983 29.2039 8.49782 29.0625 8.45397C28.9212 8.41011 28.8307 8.30287 28.7799 8.13339C28.7517 7.96161 28.7563 7.77485 28.8276 7.56967Z" fill="#3A2058"/>
<path d="M26.1623 7.35503C26.1488 7.10025 26.1964 6.88584 26.305 6.7118C26.4137 6.53776 26.5426 6.4548 26.7032 6.46177C26.8525 6.46989 26.9871 6.56101 27.0956 6.73627C27.2041 6.91154 27.2708 7.12599 27.2718 7.37039C27.2729 7.61479 27.2253 7.82919 27.128 8.00209C27.0307 8.17498 26.9017 8.25794 26.7422 8.2625C26.5941 8.26591 26.4595 8.17479 26.3385 7.98914C26.23 7.81387 26.1634 7.59942 26.1623 7.35503Z" fill="#3A2058"/>
<mask id="mask0" mask-type="alpha" maskUnits="userSpaceOnUse" x="6" y="8" width="31" height="31">
<path fill-rule="evenodd" clip-rule="evenodd" d="M21.8049 38.3784C13.5139 38.3784 6.79297 31.6335 6.79297 23.3128C6.79297 14.9929 13.5139 8.24722 21.8049 8.24722C30.096 8.24722 36.8169 14.9929 36.8169 23.3128C36.8169 31.6335 30.096 38.3784 21.8049 38.3784Z" fill="#DADADA"/>
</mask>
<g mask="url(#mask0)">
<path d="M27.0812 22.0011C27.4455 24.6584 27.9465 27.1325 28.5386 29.3774C29.996 31.5308 31.1347 33.5008 32 35.2876C31.4535 36.9828 30.4515 37.5784 28.903 37.1661C28.0832 38.5864 26.899 39.0445 25.396 38.4947C25.3505 37.5863 25.2594 37.5405 25.2139 37.5405C24.0752 38.7317 22.9366 39.5943 21.798 38.4947C21.4337 38.9071 21.0238 38.2735 20.5683 38.3651C20.1129 38.4568 19.703 39.2278 19.3842 38.9071C19.0198 38.6322 18.8376 38.4031 18.8376 38.2657C17.4257 39.1362 16.1505 38.8613 14.9663 37.3952C13.5089 37.5784 12.5069 37.6622 11.8238 35.967C10.0475 35.6463 9.09109 33.7299 9 31.9431C9.4099 31.1184 10.7762 29.6981 13.0079 27.6364C12.9168 26.8576 13.2757 26.3105 13.2757 25.669C20.6084 26.4021 24.9406 25.0708 27.0812 22.0011Z" fill="#F9F6EF"/>
</g>
<path d="M31.6122 24.3858L31.479 24.7619C31.1651 25.3742 30.0277 26.2308 27.9756 27.3796C25.923 28.4817 23.5451 29.2603 20.8884 29.7616C19.606 30.0117 18.5972 30.1179 17.9081 30.0798C16.7135 30.0012 16.0636 29.401 15.957 28.1857C15.8964 26.9697 16.4399 26.3546 17.6323 26.246C20.8942 26.439 23.6007 26.2647 25.7066 25.7703C27.8584 25.2753 29.4123 24.6942 30.3213 23.9341L30.5485 23.7441C30.731 23.6482 30.9605 23.6453 31.2376 23.7822C31.5148 23.9191 31.6088 24.1051 31.6122 24.3858Z" fill="#F55361"/>
<path d="M30.9033 24.9066L30.0783 24.3298C29.9556 24.0614 29.8809 23.7422 29.8384 23.3753C29.7533 22.6413 29.9061 22.0456 30.2779 21.5749L31.1245 22.6726L31.4538 22.3267C31.7439 22.0799 32.0611 21.9363 32.4275 21.8834L32.4714 22.3918C32.463 22.7935 32.361 23.1296 32.1681 23.4162L33.5534 23.5698C33.4272 23.8188 33.2285 24.0733 32.9448 24.3105C32.3867 24.7916 31.7031 24.9881 30.9033 24.9066Z" fill="#F55361"/>
<path d="M5.72644 19.5748C5.59061 18.7519 5.5227 17.8605 5.5227 16.9004C5.5227 15.8032 5.65853 14.9804 6.06602 14.5689H6.13393C6.81308 14.1575 7.49223 14.2261 8.23929 14.7061C8.91844 15.1861 9.5976 15.8718 10.1409 16.6947C10.6163 17.3804 11.0238 18.0662 11.3634 18.8205C11.9067 19.9177 12.2463 21.0834 12.5859 22.1806C12.8575 23.2092 13.0613 24.1006 13.1292 24.7864L13.1971 24.8549C13.265 25.4035 13.3329 25.815 13.3329 26.1578C13.3329 26.295 13.4008 26.3636 13.4008 26.5007C13.4008 26.5693 13.4008 26.6379 13.3329 26.6379C13.3329 26.7064 13.3329 26.7064 13.4008 26.6379C13.4008 26.6379 13.4008 26.5693 13.4688 26.5693L13.4008 26.6379L13.1971 26.9121C13.1971 26.9121 13.1971 26.9807 13.1292 26.9807C12.7217 27.3922 12.2463 27.8722 11.635 28.2836C10.9559 28.7636 10.1409 29.1065 9.25802 29.5179H9.19011C8.17138 29.7922 7.49223 29.5865 7.22057 28.6951C6.94891 27.8722 7.22057 26.9807 7.96764 26.0893C8.10347 25.9521 8.2393 25.815 8.37513 25.6778C7.49223 24.2378 6.94891 23.1406 6.67725 22.4549C6.26976 21.4263 5.93019 20.4662 5.72644 19.5748ZM8.64679 25.9521C8.7147 26.0207 8.7147 26.0207 8.7147 26.0893C8.64679 26.0207 8.64679 25.9521 8.64679 25.9521Z" fill="#54B8AC"/>
<path d="M9.14372 22.9486C9.20851 22.9049 9.31138 22.9438 9.36282 22.9632C10.3762 23.6877 11.3228 24.7281 12.216 26.0212C12.1645 26.0018 12.1645 26.0018 12.1131 25.9823C11.1398 25.0683 10.1398 24.2807 9.07495 23.5368C9.03687 23.4541 8.99879 23.3715 8.99879 23.3715C8.96071 23.2888 8.98742 23.1625 9.00078 23.0993C9.01413 23.0361 9.07893 22.9923 9.14372 22.9486ZM9.89904 20.1635C10.4722 21.1309 11.0187 22.2247 11.5632 23.5907C12.1077 24.9567 12.3609 25.5983 12.3475 25.6615C12.3342 25.7247 12.2694 25.7685 12.2694 25.7685C10.8203 22.9003 9.61118 20.737 8.6552 19.2154C8.61712 19.1328 8.57904 19.0501 8.5924 18.987C8.61911 18.8606 8.63246 18.7974 8.69725 18.7537C8.76205 18.7099 8.82684 18.6662 8.87827 18.6856C8.98115 18.7245 9.32585 19.1961 9.89904 20.1635Z" fill="#FFF3CB"/>
<path d="M13.16 24.5546C13.16 24.6231 13.16 24.6231 13.16 24.5546C13.2279 25.1716 13.2958 25.583 13.3637 25.9258C13.3637 26.0629 13.3637 26.1314 13.3637 26.2686C13.3637 26.3371 13.3637 26.4057 13.3637 26.4057C13.3637 26.4742 13.3637 26.4742 13.3637 26.4057C13.3637 26.4057 13.3637 26.3371 13.4316 26.3371L13.3637 26.4057L13.16 26.6799C13.16 26.6799 13.16 26.6799 13.0921 26.7485V26.6799C12.6847 27.1598 12.2094 27.5712 11.5983 28.0511C10.9193 28.531 10.1045 28.8738 9.22181 29.2852C8.2033 29.5594 7.5243 29.2852 7.1848 28.4624C6.9132 27.6397 7.1848 26.7485 7.9317 25.8572C8.0675 25.7201 8.2033 25.583 8.40701 25.4459C7.5243 24.0061 6.9811 22.9092 6.64159 22.2236C6.23419 21.1267 5.89469 20.1668 5.75889 19.3441C5.62309 18.5214 5.55519 17.6302 5.55519 16.6703C5.55519 15.5734 5.75889 14.7507 6.16629 14.3393L6.23419 14.2708C6.91319 13.8594 7.5922 13.928 8.3391 14.4079V14.3393C9.01811 14.8192 9.69711 15.5048 10.2403 16.3275C10.7156 17.0131 11.123 17.6987 11.4625 18.4529C12.0057 19.5498 12.4131 20.7153 12.6847 21.8122C12.8884 22.9777 13.0921 23.869 13.16 24.5546ZM12.8205 24.8974C12.8205 24.7603 12.7526 24.6917 12.7526 24.5546C12.3452 22.9092 11.8699 21.2638 11.2588 19.7555C10.9193 18.9328 10.444 18.1786 9.96872 17.4245C9.49341 16.6703 8.88231 16.1219 8.2712 15.6419C7.728 15.2992 7.2527 15.2306 6.77739 15.5048C6.50579 15.8476 6.36999 16.4647 6.36999 17.2874C6.43789 18.1786 6.50579 19.0013 6.57369 19.7555V19.6869C6.70949 20.4411 6.9811 21.3323 7.3885 22.3607C7.4564 22.5664 7.5243 22.7721 7.5922 22.9777C7.8638 23.6633 8.2033 24.2118 8.61071 24.7603C8.61071 24.7603 8.67861 24.8974 8.88231 25.2402V25.7201C8.81441 25.7887 8.81441 25.7887 8.74651 25.8572C8.67861 25.7887 8.67861 25.7201 8.67861 25.7201V25.7887C8.67861 25.8572 8.74651 25.8572 8.74651 25.9258C8.61071 26.0629 8.47491 26.2686 8.3391 26.5428C8.0675 27.0227 7.9317 27.5026 8.0675 28.0511C8.1354 28.3253 8.2712 28.531 8.54281 28.5996C8.74651 28.6681 8.95021 28.6681 9.22181 28.6681V28.5996C9.96872 28.4624 10.7156 28.1882 11.3946 27.7083C12.0057 27.2969 12.6168 26.817 13.0921 26.4057C13.0921 26.3371 13.0921 26.2 13.0242 26.0629C13.0242 25.9943 13.0242 25.8572 12.9563 25.7887C12.8884 25.2402 12.8205 24.9659 12.8205 24.8974Z" fill="#FFF3CB"/>
<path d="M13.3335 26.7022C13.3335 26.6337 13.3335 26.6337 13.3335 26.7022V26.7022ZM3.07829 17.9934C4.09701 17.9934 5.04782 18.3363 6.06655 18.8163C6.81361 19.1592 7.56068 19.6392 8.23983 20.1878C9.25855 20.9421 10.1414 21.8335 10.8885 22.725C11.6356 23.6164 12.1789 24.3707 12.5185 24.9879C12.926 25.6051 13.1976 26.1536 13.3335 26.4965C13.3335 26.5651 13.4014 26.6337 13.4014 26.6337V26.7022L13.2655 27.1137C12.9939 27.868 12.4506 28.7594 11.7714 29.7195C10.9564 30.7481 10.0735 31.7081 8.9869 32.5996V32.6681H8.91898C7.62859 33.6282 6.54195 33.7653 5.79489 33.011C5.04782 32.2567 4.97991 31.0909 5.65906 29.6509C5.93072 29.0337 6.33821 28.4851 6.88153 28.0737C5.8628 27.5937 4.97991 26.9765 4.16493 26.2908C3.28203 25.4679 2.60289 24.7136 2.05957 24.0279C1.58416 23.2736 1.17667 22.4507 0.769179 21.5592C0.36169 20.5306 0.293777 19.6392 0.633351 19.0906L0.70127 19.022C1.17667 18.1306 1.99165 17.7877 3.07829 17.9934Z" fill="#54B8AC"/>
<path d="M6.89599 22.2445C7.91392 22.8659 8.94812 23.6213 10.0812 24.6363C11.2143 25.6513 11.7436 26.1294 11.7517 26.1964C11.7599 26.2633 11.7017 26.3385 11.7017 26.3385C8.97133 24.3661 6.77844 22.9387 5.11486 21.9894C5.0404 21.9307 4.96595 21.8719 4.95781 21.805C4.94153 21.6711 4.9334 21.6041 4.99157 21.529C5.04975 21.4538 5.10793 21.3786 5.17424 21.3704C5.38132 21.4127 5.88621 21.6899 6.89599 22.2445ZM7.12963 25.2739C7.1878 25.1988 7.32043 25.1823 7.38674 25.1741C8.82003 25.3363 10.294 25.8333 11.8006 26.5981C11.7342 26.6064 11.7342 26.6064 11.6679 26.6146C10.2102 26.2515 8.76879 26.0223 7.26919 25.8684C7.19474 25.8096 7.12028 25.7509 7.12028 25.7509C7.04583 25.6921 7.02956 25.5582 7.02142 25.4913C7.01328 25.4243 7.07145 25.3491 7.12963 25.2739Z" fill="#FFF3CB"/>
<path d="M10.7086 22.5888C11.4276 23.5191 11.9894 24.2651 12.4024 24.8936C12.749 25.5303 13.0794 26.0331 13.1945 26.4266C13.2027 26.4935 13.2027 26.4935 13.2108 26.5605C13.219 26.6275 13.219 26.6275 13.2771 26.5523C13.2771 26.5523 13.2771 26.5523 13.269 26.4853L13.2771 26.5523L13.127 26.9787C12.8187 27.7645 12.2532 28.6502 11.4969 29.6274C10.7407 30.6047 9.84362 31.5315 8.81395 32.4747L8.74763 32.4829C8.74763 32.4829 8.74763 32.4829 8.75577 32.5498C7.46085 33.5259 6.39983 33.6574 5.63088 32.8691C4.86193 32.0809 4.79802 31.0013 5.5555 29.4802C5.82195 28.9035 6.22918 28.3772 6.71085 27.9097C5.70921 27.4222 4.7576 26.7925 4.00493 26.1381C3.10335 25.3663 2.40072 24.5698 1.91331 23.8826C1.42589 23.1954 0.988516 22.3661 0.601174 21.3946C0.13938 20.3644 0.108022 19.5527 0.440792 18.9677C0.440792 18.9677 0.440793 18.9677 0.432654 18.9007C1.0144 18.149 1.85206 17.8413 2.94564 17.9776L2.87933 17.9858C3.89846 18.0634 4.87568 18.3501 5.81102 18.8459C6.59744 19.2242 7.26752 19.7529 7.99577 20.2063C9.15446 20.8783 9.99787 21.7253 10.7086 22.5888ZM8.2749 21.3951C7.53037 20.8077 6.78584 20.2203 5.92496 19.7833C5.06408 19.3463 4.22763 19.1101 3.34113 19.0161C2.58726 18.9056 2.00671 19.1135 1.53317 19.6479C1.31675 20.0825 1.39814 20.7521 1.69475 21.5309C2.06581 22.3685 2.42874 23.1391 2.91616 23.8263L2.90802 23.7594C3.38729 24.3796 4.01547 25.1174 4.84259 25.8304C4.9915 25.9479 5.14854 26.1324 5.29744 26.2498C5.89307 26.7197 6.48055 27.1227 7.12621 27.4505C7.12621 27.4505 7.26698 27.501 7.4822 27.6103C7.30767 27.8358 7.25764 27.9779 7.18319 27.9192C6.83414 28.3702 6.56768 28.947 6.39196 29.7164L6.40009 29.7833C6.21623 30.4858 6.29763 31.1553 6.76876 31.7086C7.00026 31.9518 7.28179 32.0528 7.54705 32.02C7.8123 31.9871 8.13573 31.8791 8.5092 31.6289C9.44693 31.0369 10.2858 30.1853 11.0421 29.2081C11.7402 28.306 12.3056 27.4203 12.8129 26.6098C12.6315 26.2245 12.3837 25.8474 12.0615 25.4116C10.8633 23.8609 9.62319 22.5194 8.2749 21.3951Z" fill="#FFF3CB"/>
<path d="M39.1711 14.8886C39.1283 15.2307 39.0128 15.5194 38.8208 15.7647C38.6527 15.9502 38.4513 16.1103 38.219 16.2576C37.7543 16.5521 37.3728 16.6026 37.0602 16.4263L37.7411 15.3741L37.5149 15.1988C37.3524 15.0268 37.255 14.8006 37.2142 14.505L37.5363 14.3138C37.7917 14.1993 38.0073 14.1844 38.1932 14.2617L38.2636 13.0371C38.4243 13.0691 38.5899 13.1611 38.7462 13.3305C39.069 13.662 39.2072 14.1838 39.1711 14.8886Z" fill="#D93D4B"/>
<path d="M55.6743 32.9129C55.5102 32.9129 55.3789 32.9659 55.2476 33.0721C55.1163 33.1518 55.0835 33.2845 55.0835 33.4438C55.0835 33.603 55.1163 33.7092 55.2476 33.8154C55.3789 33.9216 55.5102 33.9747 55.6743 33.9747C55.8384 33.9747 56.0026 33.9216 56.1339 33.8154C56.2652 33.7092 56.3308 33.603 56.3308 33.4438C56.3308 33.2845 56.2652 33.1783 56.1339 33.0721C56.0026 32.9659 55.8384 32.9129 55.6743 32.9129Z" fill="#B78C77"/>
<path d="M52.2606 32.7536C52.1949 32.8067 52.1621 32.8863 52.1621 32.9925C52.1621 33.0987 52.1949 33.1783 52.2606 33.2314C52.3262 33.311 52.4247 33.3376 52.556 33.3376C52.6873 33.3376 52.7858 33.311 52.8842 33.2314C52.9499 33.1518 52.9827 33.0721 52.9827 32.9925C52.9827 32.9129 52.9499 32.8332 52.8842 32.7536C52.7858 32.6739 52.6873 32.6474 52.556 32.6474C52.4575 32.6474 52.359 32.6739 52.2606 32.7536Z" fill="#B78C77"/>
<path d="M49.372 34.0278C49.569 34.0543 49.7003 34.0809 49.7659 34.0809C49.9629 34.0809 50.1598 34.0012 50.4224 33.842C50.6522 33.6561 50.7507 33.4969 50.7507 33.311C50.7507 33.019 50.6194 32.8863 50.3239 32.8863C50.2255 32.8863 50.0942 33.0456 49.9629 33.3641C49.8316 33.7092 49.6346 33.9216 49.372 34.0278Z" fill="#B78C77"/>
<path d="M51.5384 30.4964C51.5384 30.3637 51.5056 30.2575 51.4071 30.1779C51.2758 30.0982 51.1445 30.0451 51.0461 30.0451C50.882 30.0451 50.7507 30.0982 50.6522 30.1779C50.5537 30.284 50.4881 30.3637 50.4881 30.4964C50.4881 30.6291 50.5537 30.7353 50.6522 30.815C50.7507 30.8946 50.882 30.9212 51.0461 30.9212C51.1774 30.9212 51.3087 30.8946 51.4071 30.815C51.5056 30.7088 51.5384 30.6026 51.5384 30.4964Z" fill="#B78C77"/>
<path d="M45.7285 14.3838C45.7285 14.2776 45.6957 14.2245 45.6629 14.1714C45.6629 14.1449 45.63 14.1449 45.5972 14.1183C45.4988 14.0121 45.4331 13.9325 45.4003 13.906C45.3675 13.906 45.3675 13.8794 45.3346 13.8529C45.2362 14.0387 45.1705 14.1714 45.1705 14.2511V14.3042C45.1705 14.49 45.269 14.5962 45.4659 14.5962C45.63 14.5962 45.7285 14.5165 45.7285 14.3838Z" fill="#B78C77"/>
<path d="M40.1484 9.12769C40.3453 9.18079 40.5423 9.28697 40.772 9.39315C40.9362 9.47279 41.0675 9.52588 41.2316 9.49934C41.2644 9.49934 41.3301 9.47279 41.3629 9.47279C41.4614 9.47279 41.527 9.4197 41.527 9.36661C41.527 9.26042 41.4614 9.15424 41.3629 9.0746C41.2972 9.02151 41.1988 8.96842 41.1003 8.94187C40.8705 8.86223 40.6079 8.80914 40.3125 8.80914C40.214 8.80914 40.0827 8.83569 39.9514 8.86224H39.853C39.6232 8.91533 39.4262 8.96842 39.2949 8.99496C39.4919 8.99496 39.7217 9.02151 39.9514 9.0746C40.0171 9.10115 40.0827 9.12769 40.1484 9.12769Z" fill="#B78C77"/>
<path d="M44.8423 13.9591C45.072 13.8263 45.1705 13.5874 45.072 13.2158C44.9736 12.8441 44.8423 12.5787 44.7766 12.4459L44.7766 12.4459C44.5468 12.1539 44.3171 11.8619 44.0217 11.623C43.7919 11.4106 43.4965 11.1983 43.201 10.9859C42.84 10.747 42.5117 10.5081 42.1835 10.3223L42.085 10.2692L42.085 10.2692C41.8881 10.163 41.6911 10.0568 41.4942 9.97716C41.1003 9.81789 40.6736 9.68516 40.214 9.57898C40.214 9.57898 40.1812 9.55243 40.1156 9.55243C40.0171 9.52588 39.8858 9.52588 39.7217 9.52588L39.2491 9.39315L40.1783 10.2692C40.2768 10.3488 40.6736 10.724 40.772 10.8036C40.8049 10.8302 40.9033 10.9484 40.9362 10.9749C41.0018 11.0546 41.1659 11.1675 41.2316 11.2472C41.3301 11.3268 41.3957 11.331 41.4942 11.4372C41.5926 11.5434 41.6911 11.6761 41.7896 11.8354C42.1178 12.2867 42.3804 12.8972 42.6102 13.6405C42.643 13.6671 42.643 13.6936 42.643 13.7467C42.6759 13.7998 42.6759 13.8794 42.7087 13.9325C42.7087 13.9856 42.643 14.04 42.7415 14.0652C42.7415 14.1714 42.7087 14.1449 42.7087 14.2511V14.8048C42.7415 15.0172 42.84 15.5518 42.84 15.8438C42.8072 16.3747 42.84 16.7995 42.9056 17.0649C43.0369 17.5162 43.2339 18.0737 43.4965 18.7904C43.5621 18.9762 43.6278 19.1886 43.6606 19.401C43.7262 19.6133 43.7591 19.8788 43.7591 20.1708C43.7919 20.4894 43.7919 20.7283 43.7919 20.9406C43.7919 21.1265 43.7591 21.3654 43.6606 21.5777C43.6606 21.6043 43.6278 21.6043 43.6278 21.6308C43.5293 21.8697 43.4965 22.1087 43.4965 22.2945C43.4965 22.5334 43.5293 22.6927 43.5949 22.8254C43.6934 22.9581 43.7919 23.0112 43.8904 23.0378C43.9888 23.0643 44.0873 23.0378 44.1201 22.9847C44.1858 22.9316 44.2186 22.8785 44.2186 22.8519C44.2514 22.8254 44.2514 22.7989 44.2514 22.7723V22.8254C44.2186 22.9316 44.153 23.1705 43.9888 23.5156C43.8575 23.8607 43.7919 24.0996 43.7919 24.2323C43.7919 24.3651 43.7919 24.4712 43.8247 24.5774C43.8904 24.6836 44.0217 24.7633 44.1858 24.7633C44.1201 24.896 44.0873 25.0553 44.0545 25.2145C43.9888 25.48 43.956 25.7985 43.9232 26.117L43.9232 26.1171C43.8904 26.1702 43.8904 26.2498 43.8904 26.3029C43.8904 26.4356 43.8575 26.5418 43.8575 26.6746V26.8338C43.8575 27.3382 43.8904 27.8426 43.9888 28.347C44.0873 28.9044 44.1858 29.3822 44.2514 29.7539C44.3499 30.1255 44.4155 30.683 44.4484 31.4263C44.4484 31.6121 44.4812 31.851 44.4812 32.1165C44.4812 32.5412 44.3827 32.8598 44.2186 33.0456C44.0545 33.2049 43.8247 33.2845 43.5293 33.2845C43.3652 33.2845 43.1354 33.0987 42.8071 32.7005C42.5446 32.3288 42.2163 32.1165 41.8552 32.1165C41.6583 32.1165 41.4942 32.1961 41.4285 32.3023C41.3957 32.3554 41.3629 32.435 41.3629 32.5147C41.3629 32.5943 41.3957 32.6474 41.4285 32.7005C41.4942 32.8067 41.6583 32.9129 41.8881 33.019C42.2491 33.1518 42.4133 33.2845 42.3804 33.4172C42.3804 33.55 42.2491 33.5765 41.9865 33.4969C41.8552 33.4703 41.6583 33.4438 41.4614 33.4172H40.9033C40.4438 33.4172 40.2468 33.55 40.2468 33.8154C40.2797 34.0809 40.411 34.1871 40.6736 34.134C40.969 34.0809 41.2316 34.0012 41.4614 33.8951H41.4942C41.7239 33.8154 41.9209 33.8154 42.0194 33.9216L41.2972 34.2667C40.4766 34.6649 40.1484 34.9038 40.2468 34.9569L40.4438 35.01C40.3453 35.2489 39.3606 36.7807 37.9677 37.0009H58C57.9672 37.0009 54.23 36.6027 54.1316 36.5762C54.0331 36.5496 53.7705 36.4966 53.311 36.3904C52.8514 36.2842 52.3919 36.1515 51.8995 35.9391C51.4071 35.7267 50.9476 35.5144 50.4552 35.302C51.0132 35.2489 51.3415 35.1958 51.5056 35.1427C51.8339 35.0365 51.998 34.9038 51.998 34.718C51.998 34.6118 51.9323 34.4791 51.801 34.3463C51.6697 34.1871 51.5384 34.1074 51.3743 34.1074C51.243 34.1074 51.1117 34.1605 50.9148 34.2667C50.8163 34.2667 50.7507 34.3198 50.6522 34.3729C50.6194 34.3729 50.6194 34.3729 50.5865 34.3994C50.4552 34.5056 50.2911 34.5587 50.1598 34.6118H50.0942C49.7659 34.6118 49.4705 34.5322 49.2407 34.3729C49.011 34.2136 48.8797 34.0278 48.8468 33.8154C48.9453 33.3641 48.9781 32.9659 48.9781 32.5943C48.9781 32.435 48.9781 32.3023 48.9453 32.143C48.9453 32.0368 48.9453 31.9307 48.9125 31.8245C48.814 31.2139 48.6499 30.5503 48.3873 29.8601C47.9934 28.8513 47.7965 28.0019 47.7965 27.3648C47.7965 27.0727 47.8293 26.7011 47.8949 26.1967C47.8949 26.1436 47.9278 26.064 47.9278 26.0109C47.9606 25.8251 47.9934 25.6127 48.0262 25.3738C48.0919 25.0553 48.1575 24.7898 48.1904 24.5243V24.3916C48.256 23.9403 48.2888 23.5952 48.2888 23.3298C48.2888 22.7192 48.2232 22.1087 48.0262 21.4981C47.7965 20.6752 47.3697 19.9053 46.8117 19.1621C46.2537 18.4188 45.8926 17.8879 45.7285 17.5693C45.6629 17.4366 45.5972 17.2773 45.5316 17.1446C45.4331 16.9322 45.3346 16.7198 45.269 16.4809C45.1705 16.1358 45.1049 15.7642 45.072 15.366C45.0064 14.8616 44.9407 14.4103 44.8094 13.9591H44.8423Z" fill="#B78C77"/>
<path d="M41.6914 12.6832C41.6914 12.8159 41.6914 12.8956 41.6586 12.9487C41.6258 13.0018 41.5273 13.0283 41.396 13.0283H41.3632C41.2647 13.0018 41.2319 12.869 41.2319 12.6301C41.2319 12.4178 41.2647 12.2054 41.3632 11.993C41.3632 11.9665 41.396 11.9399 41.396 11.9134V11.8337C41.5929 12.1257 41.6914 12.4178 41.6914 12.6832Z" fill="#8C5642"/>
<path d="M42.727 15.0053C42.8427 15.5347 43.0017 16.0326 43.2621 16.5861C43.7829 17.5969 44.0433 18.343 44.0433 18.7762C44.0433 18.9206 44.0143 19.1612 43.9565 19.4741C43.8986 19.787 43.8697 20.0517 43.8697 20.2683C43.8697 20.7978 44.0433 21.1829 44.3904 21.4235C44.5351 21.5198 44.6219 21.592 44.7087 21.6883C44.8534 21.8327 44.9112 21.953 44.9112 22.0733C44.9112 22.1455 44.8823 22.314 44.8244 22.5306C44.7666 22.7713 44.7376 22.9157 44.7376 22.9879C44.7376 23.1323 44.7666 23.3007 44.8534 23.4692C44.9402 23.6858 45.0848 23.8061 45.2584 23.8061C45.2873 23.8061 45.3452 23.7821 45.432 23.7339C45.5188 23.6858 45.5477 23.6617 45.5767 23.6617C45.7792 23.6617 45.8949 23.7339 45.9528 23.8543C45.9817 23.9505 46.0107 24.119 46.0107 24.4078C46.0107 24.9373 45.8371 25.563 45.5188 26.3091C45.5188 26.3331 45.4899 26.3572 45.4899 26.4053C45.1427 27.1755 44.9691 27.6568 44.9691 27.8253C44.9691 28.1863 45.0848 28.6195 45.3163 29.1489C45.6056 29.8228 45.9528 30.1597 46.3578 30.1597C46.6472 30.1597 46.7918 29.9913 46.7629 29.6784C46.734 29.4377 46.7918 29.2693 46.8786 29.2211C46.9075 29.1971 46.9365 29.1971 46.9654 29.1971C47.1101 29.1971 47.2258 29.2693 47.2837 29.4377C47.3126 29.5581 47.3415 29.7265 47.3415 29.9913C47.3415 30.2079 47.3126 30.4967 47.2258 30.8818C47.139 31.2668 47.1101 31.5556 47.1101 31.7722C47.1101 32.1814 47.1679 32.5424 47.2837 32.8552C47.4283 33.2644 47.6598 33.481 47.978 33.481C48.2384 33.481 48.441 33.3847 48.6145 33.1681C48.7592 32.9996 48.8171 32.8312 48.846 32.6146C48.8749 32.783 48.8749 32.9274 48.8749 33.0718C48.8749 33.4569 48.8171 33.866 48.7303 34.2992C48.7592 34.5399 48.9039 34.7084 49.1064 34.8528C49.3379 35.0212 49.6272 35.0934 49.9744 35.0934C50.0033 35.0934 50.0033 35.0934 50.0322 35.0934C49.8586 35.1656 49.714 35.1897 49.5982 35.1897C49.3957 35.1897 49.1932 35.1416 48.9907 35.0694C48.8749 35.0212 48.7592 34.949 48.6435 34.8528C48.6145 34.8287 48.5856 34.8046 48.5278 34.7324C48.4699 34.6602 48.3831 34.5399 48.2963 34.2992C48.2384 34.0586 48.1806 33.9623 48.1806 33.9623C48.1516 33.9623 48.0938 33.9864 47.978 34.0586C47.8623 34.1308 47.7466 34.1548 47.6598 34.1548C47.4573 34.1548 47.2547 34.0345 47.0522 33.7698C46.8786 33.5291 46.7918 33.2884 46.7629 33.0478C46.734 32.8312 46.5893 32.6868 46.3868 32.6146C46.1264 32.5664 45.9239 32.4942 45.8081 32.422C45.4899 32.2295 45.2873 31.8926 45.2005 31.4112C45.2005 31.2428 45.1716 31.0983 45.1716 30.978C45.1716 30.7133 45.1427 30.4485 45.0848 30.2079C45.0848 30.1838 45.0848 30.1838 45.0848 30.1838C44.998 29.8469 44.8244 29.534 44.564 29.2693C44.1011 28.7398 43.8118 27.9937 43.6961 27.0311C43.6961 26.9589 43.6961 26.9107 43.6961 26.8385C43.6961 26.7182 43.725 26.5738 43.725 26.4535C43.725 26.3813 43.725 26.3331 43.725 26.2609C43.7539 25.924 43.8118 25.6111 43.8697 25.3223C43.8986 25.1539 43.9565 25.0095 43.9854 24.8651C43.8118 24.841 43.6961 24.7929 43.6671 24.6725C43.6382 24.5522 43.6093 24.4319 43.6093 24.3115C43.6093 24.1671 43.6671 23.9265 43.8407 23.5655C44.0143 23.2767 44.1011 23.036 44.1011 22.9157V22.8435C44.1011 22.8916 44.1011 22.9157 44.0722 22.9638C44.0433 22.9879 44.0143 23.036 43.9565 23.1082C43.8986 23.1563 43.8407 23.1804 43.725 23.1563C43.6093 23.1323 43.5225 23.0601 43.4646 22.9397C43.4068 22.8194 43.3489 22.6269 43.3489 22.4103C43.3489 22.2177 43.4068 21.9771 43.4935 21.7364C43.4935 21.7123 43.5225 21.7123 43.5225 21.6883C43.6093 21.4476 43.6382 21.231 43.6382 21.0144C43.6382 20.7978 43.6382 20.5571 43.6093 20.2442C43.6093 19.9314 43.5803 19.6666 43.5225 19.426C43.4646 19.1853 43.4068 18.9687 43.3489 18.7762C43.0596 18.0542 42.886 17.4766 42.7702 17.0193C42.7124 16.7305 42.6834 16.3214 42.6834 15.7678C42.6834 15.479 42.727 15.2459 42.727 15.0053ZM43.4935 13.5537C43.291 12.952 43.0596 12.5429 42.857 12.3744C43.0017 12.4707 43.2042 12.7595 43.5225 13.2408C43.7829 13.6259 44.0433 13.8184 44.2747 13.8184C44.4772 13.8184 44.6508 13.7703 44.7376 13.6981C44.8244 13.6018 44.9112 13.4334 44.998 13.1927V13.2168C45.0848 13.5778 45.027 13.8184 44.7666 13.9628C44.8823 14.4201 44.9691 14.9014 45.027 15.4309C45.0559 15.816 45.1427 16.201 45.2295 16.5861C45.1427 16.3936 45.027 16.201 44.8823 16.0085C44.7666 15.816 44.5351 15.5272 44.2458 15.1421C43.9275 14.6608 43.6961 14.1554 43.4935 13.5537Z" fill="#A06C5C"/>
<path d="M39.5584 9.27029C39.732 9.27029 39.8477 9.29436 39.9634 9.31843C40.0213 9.31843 40.0502 9.3425 40.0792 9.3425C40.5421 9.43876 40.9471 9.5591 41.3522 9.75163C41.5547 9.8479 41.7572 9.94416 41.9308 10.0404L42.0465 10.0886C42.3648 10.3052 42.712 10.5218 43.0592 10.7624C43.3774 10.979 43.6378 11.1956 43.8693 11.4363C44.1586 11.701 44.3901 11.9898 44.6215 12.3027C44.7951 12.5193 44.9108 12.8322 44.9976 13.1932C44.9108 13.4338 44.824 13.6023 44.7372 13.6986C44.6504 13.7708 44.4768 13.8189 44.2743 13.8189C44.0429 13.8189 43.7825 13.6264 43.5221 13.2413C43.2038 12.76 42.9724 12.4712 42.8566 12.3749C43.0881 12.5674 43.2906 12.9525 43.4932 13.5542C43.6957 14.1558 43.9561 14.6853 44.2454 15.0944C44.5636 15.5036 44.7662 15.7924 44.8819 15.9609C45.0266 16.1534 45.1423 16.3459 45.2291 16.5385C45.2869 16.7791 45.3737 16.9957 45.4895 17.2364C45.5473 17.3808 45.6052 17.5252 45.692 17.6696C45.8656 18.0065 46.2417 18.5601 46.7914 19.3061C47.3701 20.0763 47.7751 20.8705 48.0066 21.6887C48.1802 22.3145 48.2959 22.9402 48.2959 23.59C48.2959 23.8547 48.267 24.2157 48.1802 24.673C48.1802 24.7211 48.1802 24.7693 48.1512 24.8174C48.0644 25.034 47.9776 25.1784 47.9198 25.2506C47.804 25.395 47.6305 25.4672 47.399 25.4672C47.1965 25.4672 47.0518 25.3228 46.9361 25.034C46.8493 24.8415 46.8204 24.6489 46.8204 24.4805C46.8204 24.2879 46.8782 23.9751 46.9939 23.4937C47.1097 23.0124 47.1675 22.6273 47.1675 22.3626C47.1675 22.146 47.1386 21.9294 47.1097 21.7128C47.0807 21.4721 47.0229 21.2315 46.9361 20.9908C46.7046 20.3169 46.3574 19.98 45.8945 19.98C45.7788 19.98 45.6631 20.0522 45.6052 20.1966C45.5473 20.341 45.4316 20.4132 45.3159 20.4132C44.9687 20.4132 44.7372 20.1003 44.6215 19.4505C44.5926 19.2339 44.6215 18.897 44.7083 18.4397C44.824 17.9825 44.824 17.5252 44.7083 17.1161C44.5926 16.6829 44.419 16.37 44.1586 16.1534C43.8982 15.9368 43.6667 15.672 43.4642 15.3592C43.2617 15.0463 43.146 14.7816 43.0881 14.589C43.0302 14.3965 42.8277 13.9392 42.5095 13.2413C42.1912 12.5193 41.9019 12.0139 41.6415 11.6529C41.5547 11.4844 41.439 11.3641 41.3232 11.2197C41.2364 11.0994 41.1207 11.0031 41.005 10.9309C40.9471 10.8587 40.8893 10.7865 40.8314 10.7143C40.8025 10.6662 40.7735 10.6421 40.7446 10.618C40.6578 10.5218 40.5421 10.4496 40.4553 10.3533L39.1244 9.29436L39.5584 9.27029ZM43.0592 11.7973C43.6957 12.6878 44.0139 13.121 44.0429 13.121C44.1586 13.121 44.2454 13.0969 44.2743 13.0728C44.3033 13.0247 44.3322 12.9284 44.3322 12.76C44.3322 12.423 44.0429 11.9898 43.4932 11.4363C42.9145 10.8587 42.3359 10.4977 41.7572 10.3292C42.1623 10.6662 42.5963 11.1716 43.0592 11.7973Z" fill="#AA7C6A"/>
<path d="M44.0437 13.1186C44.0148 13.1186 43.6676 12.6854 43.06 11.7949C42.5971 11.1691 42.1631 10.6637 41.758 10.3268C42.3367 10.4953 42.9153 10.8563 43.494 11.4339C44.0437 11.9874 44.333 12.4206 44.333 12.7576C44.333 12.926 44.3041 13.0223 44.2751 13.0704C44.2462 13.1186 44.1594 13.1186 44.0437 13.1186Z" fill="#98634F"/>
<path d="M51.6545 26.168C51.4678 26.2985 51.2812 26.429 51.0324 26.429C50.7835 26.429 50.5969 26.3638 50.4102 26.168C50.2236 25.9722 50.1614 25.7764 50.1614 25.5154C50.1614 25.2544 50.2236 25.0586 50.4102 24.9281C50.5969 24.7323 50.7835 24.667 51.0324 24.667C51.2812 24.667 51.4678 24.7323 51.6545 24.9281C51.8411 25.0586 51.9033 25.2544 51.9033 25.5154C51.9033 25.7764 51.8411 25.9722 51.6545 26.168Z" fill="#AD7F68"/>
<path d="M38.8383 27.7883C38.8383 27.4107 38.9876 27.1086 39.2115 26.8821C39.5102 26.58 39.8088 26.429 40.182 26.429C40.5553 26.429 40.8539 26.58 41.0779 26.8821C41.3765 27.1086 41.4512 27.4107 41.4512 27.7883C41.4512 28.1658 41.3019 28.4679 41.0779 28.6944C40.8539 28.921 40.4807 29.072 40.182 29.072C39.8834 29.072 39.5102 28.921 39.2115 28.6944C38.9876 28.4679 38.8383 28.1658 38.8383 27.7883Z" fill="#AA7C6A"/>
<path d="M34.1338 6.55787C34.1338 6.41989 34.1676 6.31641 34.269 6.21293C34.3704 6.10945 34.4718 6.07495 34.6069 6.07495C34.7421 6.07495 34.8435 6.10945 34.9449 6.21293C35.0463 6.31641 35.0801 6.41989 35.0801 6.55787C35.0801 6.69584 35.0463 6.79932 34.9449 6.90281C34.8435 7.00629 34.7421 7.04078 34.6069 7.04078C34.4718 7.04078 34.3704 7.00629 34.269 6.90281C34.1676 6.79932 34.1338 6.69584 34.1338 6.55787Z" fill="#AA7C6A"/>
</svg>
