<svg width="78" height="77" viewBox="0 0 78 77" fill="none" xmlns="http://www.w3.org/2000/svg">
<path fill-rule="evenodd" clip-rule="evenodd" d="M54.8762 4.87971C57.2661 3.53153 60.2536 5.21676 60.2536 7.91312C60.3389 10.1882 62.3875 11.7891 64.6067 11.3678C67.3381 10.8623 69.5573 13.3059 68.7891 15.918C68.1063 18.0245 69.6427 20.2995 71.8619 20.5523C74.5933 20.8894 75.959 23.9228 74.4226 26.1136C73.1423 27.9673 73.8251 30.4952 75.8736 31.422C78.349 32.5174 78.7757 35.8879 76.5565 37.5731C74.764 38.9213 74.5933 41.5334 76.3004 43.0501C78.349 44.9039 77.6661 48.1901 75.0201 49.0327C72.8862 49.791 71.9473 52.2346 73.0569 54.1726C74.4226 56.5319 72.7155 59.4811 69.9841 59.4811C67.6795 59.5653 66.0577 61.5876 66.4845 63.7784C66.9967 66.4748 64.5213 68.6656 61.8753 67.9072C59.7414 67.2331 57.4368 68.7498 57.1808 70.9406C56.8393 73.637 53.7665 74.9852 51.5473 73.4685C49.6695 72.2045 47.1088 72.8786 46.1699 74.9009C45.0603 77.3445 41.646 77.7658 39.9389 75.575C38.5732 73.8055 35.9272 73.637 34.3908 75.3222C32.513 77.3445 29.1841 76.6704 28.3305 74.0583C27.5623 71.9518 25.087 71.0249 23.1238 72.1203C20.7339 73.4685 17.7464 71.7832 17.7464 69.0869C17.6611 66.8118 15.6125 65.2109 13.3933 65.6322C10.6619 66.1377 8.44267 63.6941 9.21087 61.082C9.89372 58.9755 8.35731 56.7005 6.13807 56.4477C3.40668 56.1106 2.04099 53.0772 3.5774 50.8864C4.85773 49.0327 4.17489 46.5048 2.12635 45.578C-0.348965 44.4826 -0.775743 41.1121 1.4435 39.4269C3.23597 38.0787 3.40668 35.4666 1.69957 33.9499C-0.348965 32.0961 0.333881 28.8099 2.97991 27.9673C5.1138 27.209 6.05271 24.7654 4.94309 22.8274C3.5774 20.4681 5.28451 17.5189 8.01589 17.5189C10.3205 17.4347 11.9423 15.4124 11.5155 13.2216C11.0033 10.5252 13.4787 8.33443 16.1247 9.09278C18.2586 9.76687 20.5632 8.25017 20.8192 6.05937C21.1607 3.36301 24.2335 2.01483 26.4527 3.53153C28.3305 4.79545 30.8912 4.12136 31.8301 2.09909C32.9397 -0.344491 36.354 -0.765798 38.0611 1.425C39.4268 3.19449 42.0728 3.36301 43.6092 1.67778C45.487 -0.344491 48.8159 0.3296 49.6695 2.9417C50.3523 5.04824 52.913 5.97511 54.8762 4.87971Z" fill="#FF4658"/>
<path fill-rule="evenodd" clip-rule="evenodd" d="M25.5103 16.0887C24.7702 15.7466 24.0676 15.7574 23.4023 16.1209C22.737 16.4845 22.1726 17.1588 21.7092 18.1439C20.7449 20.1937 21.0387 21.5773 22.5908 22.2947C23.242 22.5957 24.1066 22.7989 25.1846 22.9042L24.4155 24.539C23.5064 24.5015 22.5825 24.2658 21.6437 23.8319C20.2946 23.2084 19.4536 22.3259 19.1204 21.1844C18.7873 20.0429 18.9777 18.7135 19.6916 17.196C20.1412 16.2403 20.7106 15.4841 21.3998 14.9274C22.089 14.3708 22.8526 14.0527 23.6906 13.9731C24.5287 13.8935 25.3896 14.0579 26.2735 14.4664C27.1742 14.8828 27.9776 15.517 28.6838 16.369L27.304 17.6603C27.0341 17.3365 26.7523 17.0328 26.4585 16.749C26.1647 16.4651 25.8486 16.2451 25.5103 16.0887ZM34.2669 20.9561L36.3983 21.9413L32.0027 24.0126L33.3387 29.0853L31.1438 28.0709L29.9221 23.1658L28.2449 26.7309L26.3102 25.8366L29.6172 18.8069L31.5519 19.7012L29.9457 23.1155L34.2669 20.9561ZM39.7688 23.4986L38.4613 26.2777C38.3233 26.5712 37.9375 27.2655 37.3038 28.3607L42.8961 24.944L45.2241 26.0201L41.9171 33.0498L40.0458 32.1849L41.365 29.3805C41.5997 28.8817 41.9733 28.197 42.4858 27.3265L36.9121 30.7364L34.5904 29.6633L37.8975 22.6336L39.7688 23.4986ZM49.2821 34.7476L51.2521 30.56L49.7995 29.8885C49.327 30.6193 48.8341 31.2922 48.3208 31.9073C47.8075 32.5223 47.2441 33.0605 46.6306 33.522L49.2821 34.7476ZM50.4115 40.0459L48.6734 39.2425L49.8595 36.7211L45.0893 34.5162L43.9031 37.0376L42.165 36.2342L44.0108 32.3107L44.6071 32.5863C45.3069 32.1494 46.0181 31.5187 46.7406 30.6942C47.4631 29.8697 48.1672 28.8708 48.853 27.6976L53.8643 30.0139L51.2169 35.6415L52.2572 36.1223L50.4115 40.0459ZM61.0032 33.3136L63.1346 34.2987L58.739 36.3701L60.075 41.4428L57.8802 40.4283L56.6584 35.5232L54.9812 39.0884L53.0465 38.1941L56.3535 31.1644L58.2883 32.0587L56.6821 35.4729L61.0032 33.3136ZM65.8286 44.1028L65.904 42.9741L65.8533 42.9506C65.3363 43.2067 64.8686 43.3337 64.45 43.3316C64.0314 43.3295 63.5451 43.2004 62.9911 42.9443C62.3102 42.6296 61.8649 42.189 61.6552 41.6226C61.4454 41.0561 61.5081 40.4166 61.8434 39.704C62.1944 38.9578 62.7165 38.5293 63.4096 38.4185C64.1027 38.3076 64.9889 38.4786 66.0681 38.9315L67.3165 39.4626L67.4614 39.1545C67.7967 38.4419 67.5964 37.9156 66.8605 37.5754C66.2939 37.3135 65.5479 37.1754 64.6228 37.1612L64.5914 35.5698C65.6068 35.5236 66.6114 35.7302 67.6052 36.1896C68.5567 36.6294 69.1895 37.172 69.5038 37.8173C69.818 38.4627 69.7779 39.2046 69.3835 40.0429L67.1798 44.7273L65.8286 44.1028ZM66.7909 40.5824L66.0305 40.2616C65.4602 40.0184 64.9942 39.9254 64.6325 39.9828C64.2709 40.0402 64.0013 40.2575 63.8238 40.6348C63.5695 41.1756 63.7552 41.5906 64.3811 41.8799C64.8294 42.0871 65.2479 42.1249 65.6367 41.9933C66.0256 41.8617 66.3196 41.5842 66.5187 41.1609L66.7909 40.5824Z" fill="white"/>
<path d="M27.7558 37.6779C27.4986 38.213 27.1787 38.653 26.7962 38.9979C26.4242 39.3392 26.0089 39.599 25.5504 39.7774C25.1024 39.9521 24.6217 40.0504 24.1084 40.0724C23.6055 40.0907 23.0911 40.0429 22.5652 39.9288L22.5347 39.9921C23.7066 40.7461 24.4674 41.5798 24.8171 42.4934C25.1702 43.3999 25.1013 44.3636 24.6106 45.3846C24.2857 46.0606 23.8612 46.6281 23.3373 47.087C22.8237 47.5423 22.2119 47.8593 21.5019 48.0381C20.7989 48.2203 20.0061 48.2466 19.1235 48.1171C18.2513 47.984 17.2977 47.6686 16.2626 47.1711C15.4318 46.7718 14.684 46.3257 14.0194 45.8329C13.3514 45.3471 12.7682 44.8111 12.2699 44.2248L13.6051 41.447C13.8407 41.7683 14.1041 42.0769 14.3952 42.3729C14.6864 42.6689 14.986 42.9472 15.2941 43.208C15.6055 43.4617 15.9201 43.6909 16.2378 43.8956C16.5625 44.1037 16.8762 44.2805 17.179 44.426C17.7846 44.7171 18.3151 44.9028 18.7706 44.983C19.2261 45.0633 19.6226 45.0588 19.9602 44.9697C20.2978 44.8806 20.5835 44.7189 20.8175 44.4846C21.0619 44.2467 21.2653 43.9587 21.4277 43.6207C21.58 43.3039 21.6502 42.9866 21.6383 42.6688C21.6367 42.3473 21.5304 42.0275 21.3193 41.7093C21.1186 41.3875 20.8061 41.0639 20.3817 40.7386C19.9573 40.4132 19.4001 40.0847 18.71 39.753L17.6116 39.2251L18.7132 36.9331L19.7905 37.4509C20.4383 37.7623 21.0041 37.9649 21.4877 38.0587C21.9748 38.1454 22.3925 38.1511 22.7407 38.0758C23.0994 37.9968 23.3958 37.8489 23.6301 37.6321C23.8643 37.4153 24.0542 37.1555 24.1997 36.8528C24.4637 36.3035 24.4976 35.7911 24.3015 35.3154C24.1125 34.8432 23.6483 34.4293 22.9089 34.074C22.5709 33.9115 22.2371 33.7944 21.9076 33.7227C21.5884 33.6473 21.2767 33.6015 20.9725 33.5853C20.6786 33.5654 20.3956 33.5681 20.1235 33.5933C19.8617 33.6148 19.6176 33.6448 19.3911 33.6833L18.7892 30.7156C19.1899 30.6394 19.6067 30.5928 20.0397 30.5755C20.4798 30.5617 20.9362 30.586 21.4089 30.6485C21.8849 30.704 22.3775 30.8064 22.8865 30.9557C23.3955 31.105 23.9176 31.3082 24.4527 31.5655C25.2132 31.931 25.8626 32.3472 26.401 32.814C26.9499 33.2772 27.3699 33.7738 27.6612 34.3039C27.9559 34.8269 28.113 35.3748 28.1324 35.9476C28.1622 36.5167 28.0367 37.0934 27.7558 37.6779ZM36.7684 37.5111C37.4092 37.8191 37.9775 38.1876 38.4734 38.6167C38.9693 39.0457 39.3575 39.5184 39.6382 40.0346C39.9188 40.5509 40.0741 41.1023 40.1042 41.6889C40.1343 42.2755 39.9988 42.8821 39.6976 43.5088C39.4742 43.9735 39.2007 44.3621 38.8771 44.6747C38.5569 44.9802 38.1991 45.2286 37.8038 45.42C37.4118 45.6043 36.9893 45.7349 36.5362 45.8119C36.0832 45.8888 35.6121 45.9311 35.123 45.9388C35.4265 46.3533 35.7076 46.7875 35.9662 47.2412C36.2319 47.6983 36.435 48.1686 36.5753 48.6521C36.719 49.1286 36.7825 49.6186 36.7659 50.122C36.7493 50.6254 36.6175 51.1342 36.3704 51.6482C36.0624 52.2889 35.6565 52.8089 35.1525 53.2081C34.6486 53.6074 34.0798 53.8801 33.4461 54.0262C32.8124 54.1724 32.1278 54.19 31.3923 54.0792C30.6638 53.9718 29.9158 53.7336 29.1483 53.3647C28.3174 52.9653 27.6238 52.5149 27.0674 52.0134C26.5109 51.5119 26.0955 50.9785 25.8211 50.4132C25.5468 49.848 25.4169 49.2525 25.4316 48.6268C25.4534 48.0044 25.6182 47.3729 25.9262 46.7321C26.1801 46.204 26.486 45.766 26.8439 45.4179C27.2019 45.0699 27.5959 44.7912 28.0259 44.5818C28.456 44.3725 28.9131 44.2238 29.3975 44.1359C29.8818 44.048 30.3756 44.0036 30.8787 44.0027C30.6386 43.6186 30.4281 43.227 30.2472 42.828C30.0696 42.422 29.9426 42.0099 29.8662 41.5917C29.8002 41.17 29.7917 40.7368 29.8407 40.2923C29.8967 39.8511 30.0347 39.4017 30.2547 38.944C30.5492 38.3314 30.9331 37.8572 31.4066 37.5213C31.8905 37.1818 32.4252 36.9621 33.0107 36.8621C33.5996 36.7551 34.2164 36.7612 34.8612 36.8804C35.506 36.9997 36.1417 37.2099 36.7684 37.5111ZM29.0383 47.9939C28.903 48.2756 28.8235 48.5581 28.8 48.8415C28.7798 49.1179 28.8171 49.3829 28.912 49.6365C29.0138 49.8935 29.1748 50.1356 29.395 50.3627C29.6186 50.5829 29.9064 50.7776 30.2585 50.9468C30.9978 51.3022 31.6335 51.3953 32.1655 51.2263C32.7008 51.0502 33.1056 50.677 33.3797 50.1067C33.5219 49.8109 33.5854 49.5164 33.5704 49.2231C33.5657 48.9262 33.5122 48.6318 33.4098 48.3398C33.3179 48.0443 33.1893 47.7527 33.0241 47.4653C32.8588 47.1778 32.6902 46.8974 32.5182 46.6241L32.357 46.3645C31.9727 46.3705 31.6098 46.4041 31.2683 46.4654C30.9302 46.5196 30.6172 46.6118 30.3292 46.7421C30.0516 46.8687 29.8026 47.0351 29.5822 47.2412C29.3618 47.4473 29.1805 47.6982 29.0383 47.9939ZM35.6 39.888C35.3676 39.7763 35.1324 39.7066 34.8944 39.6788C34.6634 39.6545 34.4418 39.6737 34.2296 39.7364C34.0245 39.8025 33.8323 39.9138 33.653 40.0703C33.4737 40.2269 33.3249 40.4284 33.2064 40.6748C33.0643 40.9705 32.983 41.2479 32.9626 41.5068C32.9526 41.762 32.9809 42.0096 33.0475 42.2497C33.1246 42.4861 33.2296 42.7186 33.3624 42.9472C33.5057 43.172 33.6595 43.402 33.8239 43.6371C34.0964 43.6293 34.3633 43.6059 34.6248 43.5669C34.8863 43.5279 35.1315 43.4594 35.3606 43.3615C35.6001 43.2599 35.8181 43.122 36.0146 42.9477C36.211 42.7734 36.377 42.5455 36.5123 42.2638C36.6308 42.0174 36.6952 41.7753 36.7054 41.5375C36.7157 41.2997 36.6791 41.0784 36.5955 40.8735C36.5119 40.6687 36.385 40.482 36.2146 40.3134C36.0443 40.1448 35.8394 40.003 35.6 39.888ZM43.3092 47.8972C43.0317 48.4746 42.9116 48.9499 42.9488 49.3232C42.9895 49.6895 43.2035 49.9657 43.5907 50.1518C43.971 50.3346 44.3203 50.3291 44.6388 50.1355C44.9572 49.9418 45.2569 49.5528 45.5378 48.9684C46.0861 47.8277 45.987 47.0779 45.2407 46.7192C44.8534 46.533 44.504 46.5385 44.1926 46.7355C43.8812 46.9326 43.5867 47.3198 43.3092 47.8972ZM48.104 50.1758C47.8095 50.7884 47.4699 51.3056 47.0851 51.7274C46.7108 52.1456 46.291 52.4509 45.8257 52.6433C45.3639 52.8287 44.8566 52.9013 44.3039 52.861C43.7545 52.8137 43.1595 52.636 42.5187 52.328C41.9202 52.0403 41.4344 51.6985 41.0613 51.3025C40.6987 50.9028 40.442 50.463 40.2912 49.9831C40.1509 49.4996 40.1201 48.9777 40.1987 48.4174C40.2807 47.8501 40.4689 47.2601 40.7634 46.6475C41.0578 46.0349 41.3922 45.5195 41.7666 45.1013C42.1409 44.6832 42.5555 44.3797 43.0103 44.1909C43.4722 44.0055 43.9742 43.9348 44.5165 43.9787C45.0588 44.0227 45.6468 44.197 46.2806 44.5016C46.8861 44.7926 47.3754 45.1362 47.7485 45.5322C48.1286 45.9316 48.3941 46.3712 48.5448 46.8511C48.6956 47.331 48.7316 47.851 48.653 48.4113C48.5814 48.975 48.3984 49.5632 48.104 50.1758ZM56.8099 49.8356L41.882 59.2252L39.4633 58.0626L54.3912 48.673L56.8099 49.8356ZM50.7827 58.9396C50.5052 59.517 50.3851 59.9923 50.4224 60.3656C50.463 60.7319 50.677 61.0081 51.0643 61.1943C51.4445 61.377 51.7938 61.3716 52.1123 61.1779C52.4307 60.9843 52.7304 60.5952 53.0113 60.0108C53.5596 58.8701 53.4606 58.1204 52.7142 57.7616C52.3269 57.5755 51.9776 57.5809 51.6661 57.7779C51.3547 57.975 51.0603 58.3622 50.7827 58.9396ZM55.5775 61.2182C55.283 61.8308 54.9451 62.3445 54.5637 62.7593C54.1894 63.1774 53.7696 63.4828 53.3043 63.6752C52.8425 63.8606 52.3352 63.9332 51.7825 63.8929C51.2331 63.8455 50.6381 63.6679 49.9973 63.3599C49.3988 63.0722 48.9165 62.732 48.5505 62.3394C48.1879 61.9397 47.9312 61.5 47.7804 61.0201C47.6401 60.5366 47.6092 60.0147 47.6878 59.4544C47.7665 58.894 47.953 58.3076 48.2474 57.695C48.5419 57.0824 48.8763 56.567 49.2507 56.1488C49.625 55.7307 50.0396 55.4272 50.4944 55.2384C50.9492 55.0496 51.4478 54.9772 51.9901 55.0211C52.5324 55.0651 53.1204 55.2394 53.7541 55.544C54.3596 55.8351 54.849 56.1786 55.222 56.5746C55.6021 56.974 55.8676 57.4137 56.0183 57.8935C56.1691 58.3734 56.2051 58.8935 56.1265 59.4538C56.0549 60.0175 55.8719 60.6056 55.5775 61.2182Z" fill="white"/>
</svg>
