<svg width="130" height="20" viewBox="0 0 130 20" fill="none" xmlns="http://www.w3.org/2000/svg">
<path fill-rule="evenodd" clip-rule="evenodd" d="M100.578 8.65882C101.412 8.24029 101.83 7.56666 101.83 6.63815C101.83 4.99451 100.217 4.17269 96.9911 4.17269C96.4047 4.17269 93.343 4.21818 92.2148 4.30962V9.19553C92.9145 9.25626 95.8856 9.28674 96.7203 9.28674C98.4574 9.28674 99.7432 9.07735 100.578 8.65882ZM87.7515 2.60126C87.7515 1.45611 88.4257 0.763246 89.7737 0.52221C91.1943 0.26101 94.8353 0.130409 97.0263 0.130409C103.262 0.130409 106.38 2.21978 106.38 6.39829C106.38 7.82457 105.971 9.02999 105.152 10.0143C104.334 10.9986 103.198 11.7623 101.558 12.1487L105.499 16.0559C106.206 16.8564 106.511 18.2208 104.963 18.9739C103.694 19.5913 102.297 19.1566 101.275 17.9544L96.6052 12.7562C96.2924 12.7965 92.7942 12.7766 92.1438 12.6962V17.3821C92.1438 17.9244 91.9517 18.3664 91.5664 18.7078C91.1811 19.0492 90.7753 19.2201 90.101 19.2201C89.403 19.2201 88.6845 19.0492 88.3114 18.7078C87.9381 18.3664 87.7515 17.9244 87.7515 17.3821V2.60126Z" fill="#FF495C"/>
<mask id="mask0" mask-type="alpha" maskUnits="userSpaceOnUse" x="0" y="0" width="21" height="20">
<path fill-rule="evenodd" clip-rule="evenodd" d="M0 0.150673V19.7524H20.4359V0.150673H0L0 0.150673Z" fill="white"/>
</mask>
<g mask="url(#mask0)">
<path fill-rule="evenodd" clip-rule="evenodd" d="M15.9934 2.53384C15.9934 1.84168 16.1803 1.27168 16.5534 0.823136C16.9271 0.374827 17.4743 0.150673 18.1952 0.150673C18.9166 0.150673 19.4702 0.374827 19.8565 0.823136C20.2429 1.27168 20.436 1.84168 20.436 2.53384V8.56795C20.436 10.1563 20.2684 11.5914 19.9338 12.8726C19.5989 14.154 19.058 15.3261 18.3112 16.3897C17.5646 17.453 16.5086 18.2795 15.1436 18.8687C13.7786 19.4579 12.1561 19.7524 10.2759 19.7524C6.64458 19.7524 4.02422 18.7341 2.41416 16.6971C0.804561 14.6597 0 11.9757 0 8.64485V2.53384C0 1.84168 0.199373 1.27168 0.59859 0.823136C0.998278 0.374827 1.55822 0.150673 2.27935 0.150673C3.02618 0.150673 3.60544 0.374827 4.01762 0.823136C4.4298 1.27168 4.63577 1.84168 4.63577 2.53384V8.83712C4.63577 13.3723 6.5284 15.6398 10.3144 15.6398C14.1003 15.6398 15.9934 13.3467 15.9934 8.75998V2.53384Z" fill="#FF495C"/>
</g>
<path fill-rule="evenodd" clip-rule="evenodd" d="M125.163 2.53384C125.163 1.84168 125.35 1.27168 125.723 0.823136C126.097 0.374827 126.644 0.150673 127.365 0.150673C128.087 0.150673 128.64 0.374827 129.026 0.823136C129.413 1.27168 129.606 1.84168 129.606 2.53384V8.56795C129.606 10.1563 129.439 11.5914 129.104 12.8726C128.769 14.154 128.228 15.3261 127.481 16.3897C126.735 17.453 125.679 18.2795 124.314 18.8687C122.949 19.4579 121.326 19.7524 119.446 19.7524C115.815 19.7524 113.194 18.7341 111.584 16.6971C109.974 14.6597 109.17 11.9757 109.17 8.64485V2.53384C109.17 1.84168 109.369 1.27168 109.769 0.823136C110.168 0.374827 110.728 0.150673 111.449 0.150673C112.196 0.150673 112.775 0.374827 113.188 0.823136C113.6 1.27168 113.806 1.84168 113.806 2.53384V8.83712C113.806 13.3723 115.698 15.6398 119.484 15.6398C123.27 15.6398 125.163 13.3467 125.163 8.75998V2.53384Z" fill="#FF495C"/>
<path fill-rule="evenodd" clip-rule="evenodd" d="M33.7416 19.7525C30.3103 19.7525 27.6263 18.907 25.6882 17.216C23.7501 15.525 22.7808 13.1547 22.7808 10.1056C22.7808 7.03056 23.7899 4.60285 25.8069 2.82181C27.8247 1.04077 30.5806 0.150482 34.0753 0.150482C36.776 0.150482 38.8251 0.508988 40.2228 1.22647C41.5887 1.91839 41.9861 2.77726 41.4141 3.8019C40.8742 4.72454 39.826 5.1154 38.2692 4.73134C36.649 4.34704 34.8395 4.03238 33.7597 4.03238C31.9168 4.03238 30.4717 4.57073 29.4228 5.64672C28.3743 6.72294 27.8504 8.20901 27.8504 10.1056C27.8504 11.8991 28.3981 13.3085 29.4946 14.3332C30.5905 15.3583 32.0283 15.8708 33.8073 15.8708C35.0782 15.8708 37.0618 15.5121 38.8406 14.7944C40.3659 14.2051 41.4462 14.3332 42.0813 15.1787C42.8123 16.1524 42.4946 17.0875 41.1285 17.9848C39.2856 19.1633 36.8236 19.7525 33.7416 19.7525Z" fill="#FF495C"/>
<path fill-rule="evenodd" clip-rule="evenodd" d="M71.3531 0.634244C71.8037 0.211727 72.4157 0 73.188 0C73.9608 0 74.5792 0.211727 75.0427 0.634244C75.506 1.05723 75.7379 1.62723 75.7379 2.34494C75.7379 3.08798 75.506 3.66408 75.0427 4.07417C74.5792 4.48426 73.9608 4.68942 73.188 4.68942C72.4157 4.68942 71.8037 4.49059 71.3531 4.09339C70.9025 3.6962 70.6772 3.11331 70.6772 2.34494C70.6772 1.62723 70.9025 1.05723 71.3531 0.634244Z" fill="#FF495C"/>
<path fill-rule="evenodd" clip-rule="evenodd" d="M66.6451 0.784848C66.2589 0.361863 65.7183 0.150604 65.0226 0.150604C64.3274 0.150604 63.7929 0.361863 63.4196 0.784848C63.0461 1.20736 62.8592 1.73961 62.8592 2.37995V7.58779H49.7929V2.37995C49.7929 1.73961 49.5999 1.20736 49.2132 0.784848C48.8272 0.361863 48.2863 0.150604 47.5907 0.150604C46.8954 0.150604 46.361 0.361863 45.9877 0.784848C45.6141 1.20736 45.4272 1.73961 45.4272 2.37995V17.139C45.4272 17.7798 45.6141 18.3116 45.9877 18.7341C46.361 19.1571 46.8954 19.3683 47.5907 19.3683C48.2863 19.3683 48.8272 19.1571 49.2132 18.7341C49.5999 18.3116 49.7929 17.7798 49.7929 17.139V11.9311H62.8592V17.139C62.8592 17.7798 63.0461 18.3116 63.4196 18.7341C63.7929 19.1571 64.3274 19.3683 65.0226 19.3683C65.7183 19.3683 66.2589 19.1571 66.6451 18.7341C67.0319 18.3116 67.2249 17.7798 67.2249 17.139V2.37995C67.2249 1.73961 67.0319 1.20736 66.6451 0.784848Z" fill="#FF495C"/>
<path fill-rule="evenodd" clip-rule="evenodd" d="M71.0249 9.14819C71.0249 8.50761 71.2118 7.9756 71.5853 7.55308C71.9586 7.1301 72.4929 6.91884 73.1883 6.91884C73.884 6.91884 74.4246 7.1301 74.8109 7.55308C75.1974 7.9756 75.3904 8.50761 75.3904 9.14819V17.139C75.3904 17.7798 75.1974 18.3115 74.8109 18.7341C74.4246 19.157 73.884 19.3683 73.1883 19.3683C72.4929 19.3683 71.9586 19.157 71.5853 18.7341C71.2118 18.3115 71.0249 17.7798 71.0249 17.139V9.14819Z" fill="#FF495C"/>
<path fill-rule="evenodd" clip-rule="evenodd" d="M79.5812 14.8136C80.058 14.2886 80.708 14.0255 81.5323 14.0255C82.3564 14.0255 83.0132 14.2886 83.5025 14.8136C83.9917 15.339 84.2366 15.9733 84.2366 16.7163C84.2366 17.4851 83.9983 18.1189 83.5216 18.6186C83.0455 19.1182 82.3821 19.3682 81.5323 19.3682C80.6823 19.3682 80.0257 19.1182 79.5619 18.6186C79.0984 18.1189 78.8667 17.4851 78.8667 16.7163C78.8667 15.9733 79.105 15.339 79.5812 14.8136Z" fill="#FF495C"/>
</svg>
